<svg height='100px' width='100px'  fill="#040000" xmlns="http://www.w3.org/2000/svg" viewBox="0 0 100 100" x="0px" y="0px"><title>night, moon, sky, satellite</title><path d="M72.5695,47.00759A29.81706,29.81706,0,0,0,54.42268,21.38,2.02557,2.02557,0,0,0,52.014,24.3871,28.57368,28.57368,0,0,1,56.0054,41.65817,30.19243,30.19243,0,0,1,41.77829,64.95206a29.30842,29.30842,0,0,1-15.33051,4.36173,2.02969,2.02969,0,0,0-1.3725,3.6029,29.61094,29.61094,0,0,0,28.373,3.872A30.10974,30.10974,0,0,0,72.5695,47.00759Z"></path></svg>