<svg height='100px' width='100px'  fill="#3072f9" xmlns="http://www.w3.org/2000/svg" data-name="Layer 1" viewBox="0 0 64 64" x="0px" y="0px"><title>agile-quick-nimber-success-win-jump-cliff</title><path d="M38.39453,25.919l4.93359-2.1211a1,1,0,0,0,.60547-.91992L43.92773,16.999l-2,.002.00348,3.69665a19.0031,19.0031,0,0,0-24.13336.54553l1.30664,1.51368a16.99723,16.99723,0,0,1,21.97571-.16968l-3.47473,1.49389Z"></path><path d="M58.54547,2l-5.30286,8.4256a3.30533,3.30533,0,0,0-.29559-.16046,3,3,0,1,0-3.894,0,3.30533,3.30533,0,0,0-.29559.16046L43.45453,2,41,3.6l6.02,9.56512c-.004.067-.02.13055-.02.19861V31h3.5V22h1v9H55V13.36371c0-.06806-.016-.13159-.02-.19861L61,3.6Z"></path><path d="M18,62,15,50l3.77777-6.61108L16,42l.44727-.89453,3.23956,1.61981L24,41l2-9H2l.25,30ZM7.61816,59.32227l-3-3.55567A.49849.49849,0,0,1,4.5,55.44434V51h1v4.26172l2.88184,3.416Zm4.082-22.72266A.50025.50025,0,0,1,12,36.5h4v1H12.167L8.2998,40.40039l-.5996-.80078ZM4,47H6v2H4Z"></path><path d="M40,42l5,2,5,7L47,62H62V32H38Zm19-6h2v2H59ZM58,55.02637h2v2.96484H58ZM46.18555,38.53613l5,2a.49582.49582,0,0,1,.26172.24024l3,6-.89454.44726-2.915-5.83008-4.82325-1.92968Z"></path><path d="M18,31h2A8,8,0,0,0,4,31H6a6,6,0,0,1,12,0Z"></path><path d="M8,31h2a2,2,0,0,1,4,0h2a4,4,0,0,0-8,0Z"></path></svg>
