<svg height='100px' width='100px'  fill="#3072f9" xmlns="http://www.w3.org/2000/svg" viewBox="0 0 64 64" x="0px" y="0px"><g data-name="09-Software"><path d="M63,60H36V58H62V34h2V59A1,1,0,0,1,63,60Z"></path><rect x="1" width="62" height="2"></rect><path d="M7,7H1A1,1,0,0,1,0,6V1A1,1,0,0,1,1,0H7A1,1,0,0,1,8,1V6A1,1,0,0,1,7,7ZM2,5H6V2H2Z"></path><path d="M63,7H57a1,1,0,0,1-1-1V1a1,1,0,0,1,1-1h6a1,1,0,0,1,1,1V6A1,1,0,0,1,63,7ZM58,5h4V2H58Z"></path><path d="M57,7H7A1,1,0,0,1,6,6V1A1,1,0,0,1,7,0H57a1,1,0,0,1,1,1V6A1,1,0,0,1,57,7ZM8,5H56V2H8Z"></path><path d="M22,65H16a1,1,0,0,1-1-.945l-.2-3.665A14.928,14.928,0,0,1,11.8,59.14L9.057,61.6a1,1,0,0,1-1.374-.038l-4.24-4.24a1,1,0,0,1-.038-1.375L5.859,53.2A15.006,15.006,0,0,1,4.61,50.2L.945,50A1,1,0,0,1,0,49V43a1,1,0,0,1,.945-1l3.665-.2A15.006,15.006,0,0,1,5.859,38.8L3.405,36.058a1,1,0,0,1,.038-1.375l4.24-4.24a1,1,0,0,1,1.374-.038L11.8,32.86A14.928,14.928,0,0,1,14.8,31.61l.2-3.665A1,1,0,0,1,16,27h6a1,1,0,0,1,1,.945l.2,3.665a14.928,14.928,0,0,1,3,1.25l2.739-2.455a1,1,0,0,1,1.374.038l4.24,4.24a1,1,0,0,1,.038,1.375L32.141,38.8A15.006,15.006,0,0,1,33.39,41.8l3.665.2A1,1,0,0,1,38,43v6a1,1,0,0,1-.945,1l-3.665.2A15.006,15.006,0,0,1,32.141,53.2L34.6,55.942a1,1,0,0,1-.038,1.375l-4.24,4.24a1,1,0,0,1-1.374.038L26.2,59.14a14.928,14.928,0,0,1-3,1.25L23,64.055A1,1,0,0,1,22,65Zm-5.053-2h4.106l.189-3.445a1,1,0,0,1,.767-.918,12.953,12.953,0,0,0,3.8-1.578A1,1,0,0,1,27,57.166l2.575,2.308,2.9-2.9L30.165,54a1,1,0,0,1-.106-1.192,13,13,0,0,0,1.579-3.8,1,1,0,0,1,.918-.766L36,48.053V43.947l-3.444-.189a1,1,0,0,1-.918-.766,13,13,0,0,0-1.579-3.8A1,1,0,0,1,30.165,38l2.308-2.574-2.9-2.9L27,34.834a1,1,0,0,1-1.191.107,12.953,12.953,0,0,0-3.8-1.578,1,1,0,0,1-.767-.918L21.053,29H16.947l-.189,3.445a1,1,0,0,1-.767.918,12.953,12.953,0,0,0-3.8,1.578A1,1,0,0,1,11,34.834L8.428,32.526l-2.9,2.9L7.835,38a1,1,0,0,1,.106,1.192,13,13,0,0,0-1.579,3.8,1,1,0,0,1-.918.766L2,43.947v4.106l3.444.189a1,1,0,0,1,.918.766,13,13,0,0,0,1.579,3.8A1,1,0,0,1,7.835,54L5.527,56.572l2.9,2.9L11,57.166a1,1,0,0,1,1.191-.107,12.953,12.953,0,0,0,3.8,1.578,1,1,0,0,1,.767.918Z"></path><path d="M19,56A10,10,0,1,1,29,46,10.011,10.011,0,0,1,19,56Zm0-18a8,8,0,1,0,8,8A8.009,8.009,0,0,0,19,38Z"></path><path d="M16.293,49.707l-3-3a1,1,0,0,1,0-1.414l3-3,1.414,1.414L15.414,46l2.293,2.293Z"></path><path d="M21.707,49.707l-1.414-1.414L22.586,46l-2.293-2.293,1.414-1.414,3,3a1,1,0,0,1,0,1.414Z"></path><rect y="1" width="2" height="39"></rect><path d="M51,44H47a1,1,0,0,1-1-.929L45.747,39.5a11.018,11.018,0,0,1-1.871-.776L41.17,41.069a1,1,0,0,1-1.362-.048l-2.829-2.829a1,1,0,0,1-.048-1.361l2.345-2.707a10.927,10.927,0,0,1-.776-1.872L34.929,32A1,1,0,0,1,34,31V27a1,1,0,0,1,.929-1l3.571-.254a10.927,10.927,0,0,1,.776-1.872l-2.345-2.707a1,1,0,0,1,.048-1.361l2.829-2.829a1,1,0,0,1,1.362-.048l2.706,2.345a11.018,11.018,0,0,1,1.871-.776L46,14.929A1,1,0,0,1,47,14h4a1,1,0,0,1,1,.929l.256,3.571a11.018,11.018,0,0,1,1.871.776l2.706-2.345a1,1,0,0,1,1.362.048l2.829,2.829a1,1,0,0,1,.048,1.361l-2.345,2.707a10.927,10.927,0,0,1,.776,1.872L63.071,26A1,1,0,0,1,64,27v4a1,1,0,0,1-.929,1l-3.571.254a10.927,10.927,0,0,1-.776,1.872l2.345,2.707a1,1,0,0,1-.048,1.361l-2.829,2.829a1,1,0,0,1-1.362.048l-2.706-2.345a11.018,11.018,0,0,1-1.871.776L52,43.071A1,1,0,0,1,51,44Zm-3.069-2h2.138l.24-3.349a1,1,0,0,1,.766-.9,8.971,8.971,0,0,0,2.643-1.1,1,1,0,0,1,1.18.095l2.539,2.2,1.511-1.511-2.2-2.539a1,1,0,0,1-.095-1.181,8.939,8.939,0,0,0,1.1-2.642,1,1,0,0,1,.9-.767L62,30.069V27.931l-3.349-.239a1,1,0,0,1-.9-.767,8.939,8.939,0,0,0-1.1-2.642,1,1,0,0,1,.095-1.181l2.2-2.539-1.511-1.511-2.539,2.2a1,1,0,0,1-1.18.1,8.971,8.971,0,0,0-2.643-1.1,1,1,0,0,1-.766-.9L50.069,16H47.931l-.24,3.349a1,1,0,0,1-.766.9,8.971,8.971,0,0,0-2.643,1.1,1,1,0,0,1-1.18-.1l-2.539-2.2-1.511,1.511,2.2,2.539a1,1,0,0,1,.095,1.181,8.939,8.939,0,0,0-1.1,2.642,1,1,0,0,1-.9.767L36,27.931v2.138l3.349.239a1,1,0,0,1,.9.767,8.939,8.939,0,0,0,1.1,2.642,1,1,0,0,1-.095,1.181l-2.2,2.539,1.511,1.511,2.539-2.2a1,1,0,0,1,1.18-.095,8.971,8.971,0,0,0,2.643,1.1,1,1,0,0,1,.766.9Z"></path><path d="M51.707,32.707l-1.414-1.414L52.586,29l-2.293-2.293,1.414-1.414,3,3a1,1,0,0,1,0,1.414Z"></path><path d="M46.293,32.707l-3-3a1,1,0,0,1,0-1.414l3-3,1.414,1.414L45.414,29l2.293,2.293Z"></path><rect x="47" y="46" width="12" height="2"></rect><rect x="47" y="50" width="12" height="2"></rect><rect x="47" y="54" width="2" height="2"></rect><rect x="51" y="54" width="2" height="2"></rect><rect x="5" y="14" width="12" height="2"></rect><rect x="5" y="18" width="12" height="2"></rect><rect x="5" y="22" width="12" height="2"></rect><rect x="5" y="10" width="2" height="2"></rect><rect x="9" y="10" width="2" height="2"></rect><rect x="19" y="22" width="2" height="2"></rect><rect x="62" y="1" width="2" height="23"></rect><rect x="19" y="14" width="17" height="2"></rect><rect x="19" y="18" width="15" height="2"></rect></g></svg>