<svg height='100px' width='100px'  fill="#040000" xmlns="http://www.w3.org/2000/svg" xmlns:xlink="http://www.w3.org/1999/xlink" version="1.1" x="0px" y="0px" viewBox="0 0 100 100" enable-background="new 0 0 100 100" xml:space="preserve"><path d="M79.5,13.6L79,11.3c0-0.1-0.1-0.3-0.3-0.3c-0.1-0.1-0.3-0.1-0.5-0.1l-2.8,0.5c-0.3,0.1-0.6,0.3-0.5,0.6  c0.1,0.3,0.4,0.5,0.8,0.4l1.3-0.2l-4.3,5.3l-6.8-2.2c-0.3-0.1-0.5,0-0.7,0.2l-5.8,5.9c-0.2,0.2-0.2,0.6,0.1,0.8  c0.1,0.1,0.3,0.1,0.5,0.1c0.2,0,0.3-0.1,0.4-0.2l5.5-5.6l6.8,2.2c0.3,0.1,0.6,0,0.7-0.2l4.7-5.7l0.2,1.1c0.1,0.3,0.4,0.5,0.7,0.4  c0,0,0,0,0.1,0C79.4,14.2,79.6,13.9,79.5,13.6z"></path><path d="M80.7,34V19.2c0-0.3-0.3-0.6-0.7-0.6h-3.2c-0.4,0-0.7,0.3-0.7,0.6V34h-1.6v-8.3c0-0.3-0.3-0.6-0.7-0.6h-3.2  c-0.4,0-0.7,0.3-0.7,0.6V34h-1.4V22.5c0-0.3-0.3-0.6-0.7-0.6h-3.2c-0.4,0-0.7,0.3-0.7,0.6V34h-1.4v-5c0-0.3-0.3-0.6-0.7-0.6h-2.8  c-0.4,0-0.7,0.3-0.7,0.6v5h-1.7V14.8h-1.3v20.4h27.1V34H80.7z M61.4,29.6V34h-1.5v-4.4H61.4z M65.4,34V23h1.9v11H65.4z M73.3,26.3  V34h-1.9v-7.8H73.3z M77.5,34V19.8h1.9V34H77.5z"></path><path d="M67.9,87.1L67.9,87.1c0-0.3-1.9-24.7-32.4-24.7C4.8,62.3,3.2,87,3.2,87.3v7.2c0,2,1.6,3.7,3.6,3.7h57.5c2,0,3.6-1.7,3.6-3.7  L67.9,87.1z"></path><path d="M78.4,2.4H58.4c-10.3,0-18.9,7.8-20.3,17.9c1,0.2,1.9,0.5,2.8,0.8C42,12.2,49.4,5.3,58.4,5.3h19.9c9.7,0,17.6,8.1,17.6,18  c0,9.9-7.9,18-17.6,18h-6.1l-11.4,8.6v-8.6h-2.3c-1.7,0-3.3-0.3-4.8-0.7c0,0.2,0,0.4,0,0.6c0,0.8-0.1,1.6-0.1,2.4  c1.4,0.4,2.9,0.6,4.4,0.6v11.6l15.3-11.6h5.2c11.3,0,20.5-9.4,20.5-20.9C98.9,11.7,89.7,2.4,78.4,2.4z"></path><path d="M34.8,59.2c8.9,0,16.1-8.1,16.1-18.1S43.6,23,34.8,23c-8.9,0-16.1,8.1-16.1,18.1S25.9,59.2,34.8,59.2z"></path></svg>