<svg height='100px' width='100px'  fill="#3072f9" xmlns:x="http://ns.adobe.com/Extensibility/1.0/" xmlns:i="http://ns.adobe.com/AdobeIllustrator/10.0/" xmlns:graph="http://ns.adobe.com/Graphs/1.0/" xmlns="http://www.w3.org/2000/svg" xmlns:xlink="http://www.w3.org/1999/xlink" version="1.1" x="0px" y="0px" viewBox="0 0 100 100" style="enable-background:new 0 0 100 100;" xml:space="preserve"><g><g i:extraneous="self"><g><path d="M5273.1,2400.1v-2c0-2.8-5-4-9.7-4s-9.7,1.3-9.7,4v2c0,1.8,0.7,3.6,2,4.9l5,4.9c0.3,0.3,0.4,0.6,0.4,1v6.4     c0,0.4,0.2,0.7,0.6,0.8l2.9,0.9c0.5,0.1,1-0.2,1-0.8v-7.2c0-0.4,0.2-0.7,0.4-1l5.1-5C5272.4,2403.7,5273.1,2401.9,5273.1,2400.1z      M5263.4,2400c-4.8,0-7.4-1.3-7.5-1.8v0c0.1-0.5,2.7-1.8,7.5-1.8c4.8,0,7.3,1.3,7.5,1.8C5270.7,2398.7,5268.2,2400,5263.4,2400z"></path><path d="M5268.4,2410.3c-0.6,0-1,0.4-1,1c0,0.6,0.4,1,1,1h4.3c0.6,0,1-0.4,1-1c0-0.6-0.4-1-1-1H5268.4z"></path><path d="M5272.7,2413.7h-4.3c-0.6,0-1,0.4-1,1c0,0.6,0.4,1,1,1h4.3c0.6,0,1-0.4,1-1C5273.7,2414.1,5273.3,2413.7,5272.7,2413.7z"></path><path d="M5272.7,2417h-4.3c-0.6,0-1,0.4-1,1c0,0.6,0.4,1,1,1h4.3c0.6,0,1-0.4,1-1C5273.7,2417.5,5273.3,2417,5272.7,2417z"></path></g><g><path d="M34,66.5H4.9c-1.3,0-2.4,1.1-2.4,2.4v17.9c0,1.3,1.1,2.4,2.4,2.4h18.9c0.9,0,1.6-0.5,2.1-1.2L36,70     C36.9,68.5,35.8,66.5,34,66.5z"></path><path d="M95.1,66.5H66c-1.8,0-3,2-2.1,3.6l10.2,17.9c0.4,0.7,1.2,1.2,2.1,1.2h18.9c1.3,0,2.4-1.1,2.4-2.4V68.9     C97.5,67.5,96.4,66.5,95.1,66.5z"></path><path d="M60.8,46.1c-0.7-0.6-1.2-1-1.5-1.3c-1.1-1-1.7-2.1-1.9-3.2L54.8,45c-0.1,0.1-0.2,0.2-0.3,0.2h-9.1     c-1.8,0-3.2,1.4-3.2,3.2c0,1.8,1.4,3.2,3.2,3.2h9.1c2.1,0,4-0.9,5.3-2.6l1.7-2.2c0,0-0.1-0.1-0.1-0.1L60.8,46.1z"></path><path d="M71.8,53l3.8,8.4c0.5,1.2,1.7,1.9,2.9,1.9c0.4,0,0.9-0.1,1.3-0.3c1.6-0.7,2.3-2.6,1.6-4.2l-3.7-8.4     c-0.8-1.9-2.1-3.6-3.7-5L69.8,42l4.9-10.6c0.5,0.4,1.1,0.9,1.7,1.4c1.3,1.1,3,1.8,4.8,1.8l6.1,0.1c1.4,0,2.7-1.1,2.7-2.6     c0-1.5-1.1-2.7-2.6-2.7l-6.1-0.1c-0.6,0-1.1-0.2-1.5-0.6c-5-4.2-5.7-4.4-6.4-4.5l-4.3-0.8c-0.6-0.1-1.3-0.3-9.2,1.2     c-1.8,0.3-3.4,1.3-4.5,2.7L52,31.5c-0.9,1.1-0.8,2.8,0.4,3.7c0.5,0.4,1.1,0.6,1.7,0.6c0.8,0,1.5-0.3,2-1l3.4-4.2     c0.4-0.4,0.9-0.7,1.4-0.8c1-0.2,1.9-0.3,2.6-0.5l-1.9,5l-0.4,0.9c-1.4,3.7-2.1,5.8-0.2,7.6c0.4,0.4,1.1,1,2,1.8     c2.7,2.3,6.6,5.6,6.6,5.6C70.6,51,71.3,51.9,71.8,53z"></path><ellipse transform="matrix(0.2337 -0.9723 0.9723 0.2337 39.6627 83.7901)" cx="73" cy="16.7" rx="5.8" ry="5.8"></ellipse><path d="M45.3,36l-7.4-4.5c-0.9-0.5-2,0.1-2,1.1l0,2.4c-5.8,0.2-11.2,2.5-15.3,6.6c-4.3,4.3-6.6,10-6.6,16v3     c0,1.2,0.9,2.1,2.1,2.1s2.1-0.9,2.1-2.1v-3c0-4.9,1.9-9.5,5.4-13c3.3-3.3,7.7-5.2,12.4-5.3l0,2.3c0,1,1.1,1.6,2,1.1l7.4-4.5     C46.2,37.7,46.2,36.5,45.3,36z"></path></g></g></g></svg>