<svg height='100px' width='100px'  fill="#000000" xmlns:x="http://ns.adobe.com/Extensibility/1.0/" xmlns:i="http://ns.adobe.com/AdobeIllustrator/10.0/" xmlns:graph="http://ns.adobe.com/Graphs/1.0/" xmlns="http://www.w3.org/2000/svg" xmlns:xlink="http://www.w3.org/1999/xlink" version="1.1" x="0px" y="0px" viewBox="-255 347 100 100" style="enable-background:new -255 347 100 100;" xml:space="preserve"><g><g i:extraneous="self"><path d="M-219.2,413.9c0-0.6,0.5-1.1,1.1-1.1l0,0c0.6,0,1.1,0.5,1.1,1.1l0,0c0,0.6-0.5,1.1-1.1,1.1l0,0    C-218.7,415.1-219.2,414.6-219.2,413.9z M-222.5,413.9c0-0.6,0.5-1.1,1.1-1.1l0,0c0.6,0,1.1,0.5,1.1,1.1l0,0    c0,0.6-0.5,1.1-1.1,1.1l0,0C-222,415.1-222.5,414.6-222.5,413.9z M-225.8,413.9c0-0.6,0.5-1.1,1.1-1.1l0,0c0.6,0,1.1,0.5,1.1,1.1    l0,0c0,0.6-0.5,1.1-1.1,1.1l0,0C-225.3,415.1-225.8,414.6-225.8,413.9z M-205.8,401.6c0.2,0.2,0.5,0.3,0.8,0.3    c0.3,0,0.6-0.1,0.8-0.3c0.2-0.2,0.3-0.5,0.3-0.8c0-0.3-0.1-0.6-0.3-0.8c-0.2-0.2-0.5-0.3-0.8-0.3c-0.3,0-0.6,0.1-0.8,0.3    c-0.2,0.2-0.3,0.5-0.3,0.8C-206.1,401.1-206,401.4-205.8,401.6z M-205,412.8c0.6,0,1.1,0.5,1.1,1.1l0,0c0,0.6-0.5,1.1-1.1,1.1l0,0    c-0.6,0-1.1-0.5-1.1-1.1l0,0C-206.1,413.3-205.6,412.8-205,412.8z M-205,409.5c0.6,0,1.1,0.5,1.1,1.1l0,0c0,0.6-0.5,1.1-1.1,1.1    l0,0c-0.6,0-1.1-0.5-1.1-1.1l0,0C-206.1,410-205.6,409.5-205,409.5z M-205,406.3c0.6,0,1.1,0.5,1.1,1.1l0,0c0,0.6-0.5,1.1-1.1,1.1    l0,0c-0.6,0-1.1-0.5-1.1-1.1l0,0C-206.1,406.8-205.6,406.3-205,406.3z M-205,403c0.6,0,1.1,0.5,1.1,1.1l0,0c0,0.6-0.5,1.1-1.1,1.1    l0,0c-0.6,0-1.1-0.5-1.1-1.1l0,0C-206.1,403.5-205.6,403-205,403z M-196.3,413.9c0-0.6,0.5-1.1,1.1-1.1l0,0c0.6,0,1.1,0.5,1.1,1.1    l0,0c0,0.6-0.5,1.1-1.1,1.1l0,0C-195.8,415.1-196.3,414.6-196.3,413.9z M-199.6,413.9c0-0.6,0.5-1.1,1.1-1.1l0,0    c0.6,0,1.1,0.5,1.1,1.1l0,0c0,0.6-0.5,1.1-1.1,1.1l0,0C-199.1,415.1-199.6,414.6-199.6,413.9z M-202.9,413.9    c0-0.6,0.5-1.1,1.1-1.1l0,0c0.6,0,1.1,0.5,1.1,1.1l0,0c0,0.6-0.5,1.1-1.1,1.1l0,0C-202.4,415.1-202.9,414.6-202.9,413.9z     M-191.1,414.7c0.2-0.2,0.3-0.5,0.3-0.8c0-0.3-0.1-0.6-0.3-0.8c-0.2-0.2-0.5-0.3-0.8-0.3c-0.3,0-0.6,0.1-0.8,0.3    c-0.2,0.2-0.3,0.5-0.3,0.8c0,0.3,0.1,0.6,0.3,0.8s0.5,0.3,0.8,0.3C-191.6,415.1-191.3,414.9-191.1,414.7z M-209.4,413.9    c0-0.6,0.5-1.1,1.1-1.1l0,0c0.6,0,1.1,0.5,1.1,1.1l0,0c0,0.6-0.5,1.1-1.1,1.1l0,0C-208.9,415.1-209.4,414.6-209.4,413.9z     M-212.7,413.9c0-0.6,0.5-1.1,1.1-1.1l0,0c0.6,0,1.1,0.5,1.1,1.1l0,0c0,0.6-0.5,1.1-1.1,1.1l0,0    C-212.2,415.1-212.7,414.6-212.7,413.9z M-216,413.9c0-0.6,0.5-1.1,1.1-1.1l0,0c0.6,0,1.1,0.5,1.1,1.1l0,0c0,0.6-0.5,1.1-1.1,1.1    l0,0C-215.5,415.1-216,414.6-216,413.9z M-219.2,413.9c0-0.6,0.5-1.1,1.1-1.1l0,0c0.6,0,1.1,0.5,1.1,1.1l0,0    c0,0.6-0.5,1.1-1.1,1.1l0,0C-218.7,415.1-219.2,414.6-219.2,413.9z M-186.5,413.9c0-0.6,0.5-1.1,1.1-1.1l0,0    c0.6,0,1.1,0.5,1.1,1.1l0,0c0,0.6-0.5,1.1-1.1,1.1l0,0C-186,415.1-186.5,414.6-186.5,413.9z M-189.8,413.9c0-0.6,0.5-1.1,1.1-1.1    l0,0c0.6,0,1.1,0.5,1.1,1.1l0,0c0,0.6-0.5,1.1-1.1,1.1l0,0C-189.3,415.1-189.8,414.6-189.8,413.9z M-205,378.8L-205,378.8    C-205,378.8-205,378.8-205,378.8C-205,378.8-205,378.8-205,378.8L-205,378.8c7-0.1,6-9.3,6-9.3c-0.3-6.2-5.4-6.1-5.9-6.1    c-0.5,0-5.7-0.1-5.9,6.1C-210.9,369.5-211.9,378.7-205,378.8z M-217.6,389.6v5.5h12.6h12.6v-5.5c0,0.1,0,0.1,0,0.1    c0-0.4,0-0.8,0-1.2v-0.1c0,0,0,0,0,0c-0.1-2-0.4-3.4-2.5-4.6c-2.7-1.7-5.7-3.2-5.7-3.2l-2.4,7.6l-1.4-4c2.5-3.4-0.2-3.6-0.6-3.6v0    c0,0,0,0,0,0c0,0,0,0,0,0v0c-0.5,0-3.1,0.2-0.6,3.6l-1.4,4l-2.4-7.6c0,0-3,1.5-5.7,3.2c-2,1.3-2.4,2.6-2.5,4.6c0,0,0,0,0,0v0.1    c0,0.4,0,0.8,0,1.2C-217.6,389.7-217.6,389.6-217.6,389.6z M-192.4,388.3C-192.4,388.3-192.4,388.3-192.4,388.3    C-192.4,388.2-192.4,388.2-192.4,388.3z M-217.6,388.3C-217.6,388.3-217.6,388.3-217.6,388.3    C-217.6,388.2-217.6,388.2-217.6,388.3z M-172.6,414.3L-172.6,414.3C-172.6,414.3-172.6,414.3-172.6,414.3    C-172.5,414.3-172.5,414.3-172.6,414.3L-172.6,414.3c7-0.1,6-9.3,6-9.3c-0.3-6.2-5.4-6.1-5.9-6.1c-0.5,0-5.7-0.1-5.9,6.1    C-178.5,405.1-179.5,414.3-172.6,414.3z M-185.2,425.1v5.5h12.6h12.6v-5.5c0,0.1,0,0.1,0,0.1c0-0.4,0-0.8,0-1.2v-0.1c0,0,0,0,0,0    c-0.1-2-0.4-3.4-2.5-4.6c-2.7-1.7-5.7-3.2-5.7-3.2l-2.4,7.6l-1.4-4c2.5-3.4-0.2-3.6-0.6-3.6v0c0,0,0,0,0,0c0,0,0,0,0,0v0    c-0.5,0-3.1,0.2-0.6,3.6l-1.4,4l-2.4-7.6c0,0-3,1.5-5.7,3.2c-2,1.3-2.4,2.6-2.5,4.6c0,0,0,0,0,0v0.1c0,0.4,0,0.8,0,1.2    C-185.2,425.2-185.2,425.2-185.2,425.1z M-160,423.8C-160,423.8-160,423.8-160,423.8C-160,423.8-160,423.8-160,423.8z     M-185.2,423.8C-185.2,423.8-185.2,423.8-185.2,423.8C-185.2,423.8-185.2,423.8-185.2,423.8z M-237.5,414.3L-237.5,414.3    C-237.5,414.3-237.4,414.3-237.5,414.3C-237.4,414.3-237.4,414.3-237.5,414.3L-237.5,414.3c7-0.1,6-9.3,6-9.3    c-0.3-6.2-5.4-6.1-5.9-6.1c-0.5,0-5.7-0.1-5.9,6.1C-243.4,405.1-244.4,414.3-237.5,414.3z M-250.1,425.1v5.5h12.6h12.6v-5.5    c0,0.1,0,0.1,0,0.1c0-0.4,0-0.8,0-1.2v-0.1c0,0,0,0,0,0c-0.1-2-0.4-3.4-2.5-4.6c-2.7-1.7-5.7-3.2-5.7-3.2l-2.4,7.6l-1.4-4    c2.5-3.4-0.2-3.6-0.6-3.6v0c0,0,0,0,0,0c0,0,0,0,0,0v0c-0.5,0-3.1,0.2-0.6,3.6l-1.4,4l-2.4-7.6c0,0-3,1.5-5.7,3.2    c-2,1.3-2.4,2.6-2.5,4.6c0,0,0,0,0,0v0.1c0,0.4,0,0.8,0,1.2C-250.1,425.2-250.1,425.2-250.1,425.1z M-224.8,423.8    C-224.8,423.8-224.8,423.8-224.8,423.8C-224.8,423.8-224.8,423.8-224.8,423.8z M-250,423.8C-250,423.8-250,423.8-250,423.8    C-250,423.8-250,423.8-250,423.8z"></path></g></g></svg>