<svg xmlns="http://www.w3.org/2000/svg" xmlns:xlink="http://www.w3.org/1999/xlink" width="100" height="100" viewBox="0 0 100 100"><circle stroke="none" fill="#3072f9" r="48%" cx="50%" cy="50%"></circle><g transform="translate(50 50) scale(0.69 0.69) rotate(0) translate(-50 -50)" style="fill:#ffffff"><svg fill="#ffffff" xmlns="http://www.w3.org/2000/svg" data-name="Layer 3" viewBox="0 0 64 64" x="0px" y="0px"><title>PROGRAMING-code-data-marketing-interface-application</title><path d="M27,35H57V23H27Zm18.29-9.29,1.42-1.42,4,4a1,1,0,0,1,0,1.42l-4,4-1.42-1.42L48.59,29Zm-2.18-1.16,1.78.9-4,8-1.78-.9Zm-9.82,3.74,4-4,1.42,1.42L35.41,29l3.3,3.29-1.42,1.42-4-4A1,1,0,0,1,33.29,28.29Z"></path><path d="M43,57H25a2,2,0,0,0-2,2v2H45V59A2,2,0,0,0,43,57Z"></path><rect x="29" y="49" width="10" height="6"></rect><path d="M7,20a1,1,0,0,0,1,1h2V17.82a3,3,0,1,1,2,0V21h2a1,1,0,0,0,1-1V18.48a1,1,0,0,1,.44-.83A8,8,0,0,0,11,3h-.23A8.07,8.07,0,0,0,3,10.94a8,8,0,0,0,3.56,6.71,1,1,0,0,1,.44.83ZM15.29,8.29l1.42,1.42-2,2-1.42-1.42ZM10,7h2v3H10ZM5.29,9.71,6.71,8.29l2,2L7.29,11.71Z"></path><circle cx="11" cy="15" r="1"></circle><path d="M9,26a1,1,0,0,0,1,1h2a1,1,0,0,0,1-1V23H9Z"></path><path d="M7,44a3,3,0,0,0,3,3H58a3,3,0,0,0,3-3V41H7Zm50-1h2v2H57Zm-4,0h2v2H53Z"></path><path d="M27,21H57V15H27Zm26-4h2v2H53Zm-4,0h2v2H49Zm-4,0h2v2H45Z"></path><path d="M58,11H45v2H58a1,1,0,0,1,1,1V36a1,1,0,0,1-1,1H26a1,1,0,0,1-1-1V14a1,1,0,0,1,1-1H39V11H21a10,10,0,0,1-4,8v1a3,3,0,0,1-2,2.82V26a3,3,0,0,1-3,3H10a3,3,0,0,1-3-3V39H61V14A3,3,0,0,0,58,11Z"></path><rect x="41" y="11" width="2" height="2"></rect><circle cx="54" cy="4" r="2"></circle><circle cx="30" cy="4" r="2"></circle><path d="M45,5h6.18A3,3,0,0,1,51,4a3,3,0,0,1,.18-1H44a1,1,0,0,0-1,1v7h2Z"></path><path d="M41,4a1,1,0,0,0-1-1H32.82A3,3,0,0,1,33,4a3,3,0,0,1-.18,1H39v6h2Z"></path></svg></g></svg>