<svg height='175px' width='175px'  fill="#3072f9" xmlns="http://www.w3.org/2000/svg" xmlns:xlink="http://www.w3.org/1999/xlink" xml:space="preserve" version="1.1" style="shape-rendering:geometricPrecision;text-rendering:geometricPrecision;image-rendering:optimizeQuality;" viewBox="0 0 1000 1000" x="0px" y="0px" fill-rule="evenodd" clip-rule="evenodd"><defs><style type="text/css">
   
    .fil0 {fill:#3072f9;fill-rule:nonzero}
   
  </style></defs><g><path class="fil0" d="M876 515l-209 164c-7,5 -8,14 -3,20 5,7 15,8 21,3l243 -189c4,-3 7,-8 7,-13 0,-5 -3,-10 -7,-13l-243 -189c-6,-5 -16,-4 -21,3 -5,6 -4,15 3,21l209 163 -737 0c-8,0 -15,7 -15,15 0,8 7,15 15,15l737 0z"></path><path class="fil0" d="M65 752c0,8 7,15 15,15 8,0 15,-7 15,-15l0 -504c0,-8 -7,-15 -15,-15 -8,0 -15,7 -15,15l0 504z"></path></g></svg>