<svg height='100px' width='100px'  fill="#3072f9" xmlns:dc="http://purl.org/dc/elements/1.1/" xmlns:cc="http://creativecommons.org/ns#" xmlns:rdf="http://www.w3.org/1999/02/22-rdf-syntax-ns#" xmlns:svg="http://www.w3.org/2000/svg" xmlns="http://www.w3.org/2000/svg" xmlns:sodipodi="http://sodipodi.sourceforge.net/DTD/sodipodi-0.dtd" xmlns:inkscape="http://www.inkscape.org/namespaces/inkscape" viewBox="0 0 8.4666667 8.4666669" version="1.1" x="0px" y="0px"><svg:g style="" display="inline"><svg:path style="color:#000000;font-style:normal;font-variant:normal;font-weight:normal;font-stretch:normal;font-size:medium;line-height:normal;font-family:sans-serif;font-variant-ligatures:normal;font-variant-position:normal;font-variant-caps:normal;font-variant-numeric:normal;font-variant-alternates:normal;font-feature-settings:normal;text-indent:0;text-align:start;text-decoration:none;text-decoration-line:none;text-decoration-style:solid;text-decoration-color:#000000;letter-spacing:normal;word-spacing:normal;text-transform:none;writing-mode:lr-tb;direction:ltr;text-orientation:mixed;dominant-baseline:auto;baseline-shift:baseline;text-anchor:start;white-space:normal;shape-padding:0;clip-rule:nonzero;display:inline;overflow:visible;visibility:visible;opacity:1;isolation:auto;mix-blend-mode:normal;color-interpolation:sRGB;color-interpolation-filters:linearRGB;solid-color:#000000;solid-opacity:1;vector-effect:none;fill:#000000;fill-opacity:1;fill-rule:nonzero;stroke:none;stroke-width:0.52916664;stroke-linecap:round;stroke-linejoin:round;stroke-miterlimit:4;stroke-dasharray:none;stroke-dashoffset:0;stroke-opacity:1;color-rendering:auto;image-rendering:auto;shape-rendering:auto;text-rendering:auto;enable-background:accumulate" d="M 4.2284227,-0.00385044 A 0.26460979,0.26460979 0 0 0 3.9690093,0.26383347 V 1.6714995 c 0.087265,-0.00673 0.174588,-0.013436 0.2635488,-0.013436 0.089657,0 0.1776756,0.0066 0.2656179,0.013436 V 0.26383347 A 0.26460979,0.26460979 0 0 0 4.2284227,-0.00385044 Z M 4.498176,1.6714995 V 3.724604 L 4.9493091,3.2440133 A 0.26462654,0.26462654 0 1 1 5.3358494,3.6052315 L 4.4258283,4.5741647 a 0.26460979,0.26460979 0 0 1 -0.3849899,0 L 3.1308172,3.6052315 a 0.26460979,0.26460979 0 0 1 0.197403,-0.4490681 0.26460979,0.26460979 0 0 1 0.187587,0.08785 L 3.9690093,3.727188 V 1.6714995 C 2.2138058,1.8068912 0.82604773,3.2752677 0.82604773,5.0645742 c 0,0.7154666 0.22262567,1.379371 0.60099577,1.9280475 L 2.9287629,5.4909047 2.2678205,5.5115753 A 0.26460979,0.26460979 0 1 1 2.2502495,4.9844755 l 1.328084,-0.042891 a 0.26460979,0.26460979 0 0 1 0.010337,-5.168e-4 0.26460979,0.26460979 0 0 1 0.2630328,0.2738851 L 3.8108784,6.5430367 A 0.26498716,0.26498716 0 1 1 3.2811958,6.5254668 L 3.3018651,5.8660754 1.7634585,7.404483 c 0.6212285,0.65503 1.4971739,1.0660845 2.4690996,1.0660845 0.9721876,0 1.848993,-0.4112622 2.47065,-1.0666015 L 5.1648016,5.8655586 5.1854708,6.5254668 a 0.26479439,0.26479439 0 1 1 -0.5291666,0.01757 L 4.6154816,5.2149525 A 0.26460979,0.26460979 0 0 1 4.8867827,4.9415842 l 1.328084,0.042891 A 0.26460979,0.26460979 0 1 1 6.1993621,5.5115753 L 5.5379038,5.4909047 7.0391046,6.992105 C 7.4176122,6.4434941 7.6406189,5.7798926 7.6406189,5.0645742 7.6406189,3.2759636 6.2525433,1.8078774 4.498176,1.6714995 Z M 7.0391046,6.992105 C 6.9381634,7.1384095 6.825189,7.2753753 6.7032081,7.403966 L 7.6111629,8.3124377 A 0.26460979,0.26460979 0 1 0 7.9863341,7.9393339 Z M 1.7634585,7.404483 C 1.6414565,7.2758418 1.5279873,7.1390003 1.4270435,6.9926217 L 0.48033257,7.9393339 a 0.26460979,0.26460979 0 1 0 0.37517122,0.3731038 z"></svg:path></svg:g></svg>
