<svg xmlns="http://www.w3.org/2000/svg" xmlns:xlink="http://www.w3.org/1999/xlink" width="100" height="100" viewBox="0 0 100 100"><circle stroke="none" fill="#3072f9" r="48%" cx="50%" cy="50%"></circle><g transform="translate(50 50) scale(0.69 0.69) rotate(0) translate(-50 -50)" style="fill:#ffffff"><svg fill="#ffffff" xmlns="http://www.w3.org/2000/svg" xmlns:xlink="http://www.w3.org/1999/xlink" version="1.1" x="0px" y="0px" viewBox="0 0 64 64" style="enable-background:new 0 0 64 64;" xml:space="preserve"><path d="M20,20c-1.654,0-3,1.346-3,3c0,0.06,0.006,0.12,0.017,0.179l1.701,9.358c0.253,1.394,1.442,2.415,2.849,2.461L26,35.83  v18.405c-0.539-0.139-1.078-0.289-1.6-0.463l-0.635,1.896c0.651,0.218,1.324,0.413,1.998,0.579L26,55.288V58.5  c0,1.93,1.57,3.5,3.5,3.5c0.98,0,1.864-0.407,2.5-1.058C32.636,61.593,33.52,62,34.5,62c1.93,0,3.5-1.57,3.5-3.5V35.834l4.572-0.835  c1.308-0.044,2.448-0.94,2.795-2.209l2.598-9.526C47.988,23.177,48,23.089,48,23c0-1.654-1.346-3-3-3  c-1.603,0-2.916,1.263-2.996,2.846l-1.552,5.429C40.331,28.702,39.936,29,39.491,29h-3.517C36.609,28.162,37,27.13,37,26  c0-2.757-2.243-5-5-5s-5,2.243-5,5c0,1.13,0.391,2.162,1.026,3h-3.291c-0.494,0-0.92-0.369-0.989-0.859l-0.746-5.219  C22.957,21.304,21.628,20,20,20z M29,26c0-1.654,1.346-3,3-3s3,1.346,3,3s-1.346,3-3,3S29,27.654,29,26z M24.734,31H32h7.491  c1.333,0,2.519-0.895,2.885-2.176l1.586-5.549C43.987,23.186,44,23.093,44,23c0-0.551,0.448-1,1-1c0.514,0,0.938,0.39,0.994,0.889  l-2.557,9.375C43.319,32.697,42.923,33,42.473,33c-0.061,0-0.12,0.005-0.18,0.016l-5.473,1C36.345,34.103,36,34.517,36,35v23.5  c0,0.827-0.673,1.5-1.5,1.5S33,59.327,33,58.5V45h-2v13.5c0,0.827-0.673,1.5-1.5,1.5S28,59.327,28,58.5V35  c0-0.481-0.343-0.894-0.815-0.983l-5.331-1C21.793,33.006,21.73,33,21.669,33c-0.483,0-0.897-0.345-0.984-0.821l-1.682-9.254  C19.041,22.409,19.474,22,20,22c0.552,0,1,0.449,1,1c0,0.047,0.003,0.095,0.01,0.142l0.755,5.282C21.975,29.893,23.251,31,24.734,31  z"></path><path d="M11,20c4.963,0,9-4.038,9-9s-4.037-9-9-9s-9,4.038-9,9S6.037,20,11,20z M11,4c3.859,0,7,3.14,7,7s-3.141,7-7,7s-7-3.14-7-7  S7.141,4,11,4z"></path><path d="M10,13h4v-2h-3V7H9v5C9,12.552,9.447,13,10,13z"></path><path d="M61,12h-1V3c0-0.552-0.447-1-1-1H41c-0.553,0-1,0.448-1,1v9h-1c-0.553,0-1,0.448-1,1c0,2.757,2.243,5,5,5h14  c2.757,0,5-2.243,5-5C62,12.448,61.553,12,61,12z M42,4h16v8H42V4z M57,16H43c-1.304,0-2.416-0.836-2.829-2H41h18h0.829  C59.416,15.164,58.304,16,57,16z"></path><rect x="45" y="7" width="2" height="3"></rect><rect x="49" y="6" width="2" height="4"></rect><rect x="53" y="7" width="2" height="3"></rect><path d="M3,62h14c0.553,0,1-0.448,1-1V47c0-0.304-0.138-0.591-0.375-0.781l-5-4C12.447,42.077,12.228,42,12,42H3  c-0.553,0-1,0.448-1,1v18C2,61.552,2.447,62,3,62z M4,44h7.649L16,47.48V60H4V44z"></path><path d="M51,40c-6.065,0-11,4.935-11,11c0,3.58,1.727,6.756,4.382,8.766c0.007,0.005,0.009,0.014,0.016,0.019  c0.042,0.032,0.087,0.059,0.13,0.09c0.178,0.13,0.357,0.256,0.542,0.375c0.088,0.057,0.178,0.108,0.267,0.162  c0.179,0.108,0.358,0.217,0.544,0.316c0.159,0.084,0.322,0.157,0.484,0.233c0.203,0.095,0.407,0.185,0.616,0.267  c0.214,0.085,0.429,0.167,0.648,0.238c0.113,0.036,0.228,0.067,0.342,0.099c0.213,0.061,0.427,0.118,0.644,0.166  c0.116,0.026,0.232,0.049,0.349,0.071c0.231,0.043,0.463,0.078,0.697,0.107c0.105,0.013,0.208,0.028,0.313,0.038  C50.314,61.98,50.655,62,51,62s0.686-0.02,1.026-0.052c0.105-0.01,0.209-0.025,0.313-0.038c0.234-0.029,0.467-0.063,0.697-0.107  c0.117-0.022,0.233-0.046,0.349-0.071c0.217-0.048,0.431-0.105,0.644-0.166c0.114-0.033,0.229-0.063,0.342-0.099  c0.219-0.071,0.434-0.153,0.648-0.238c0.209-0.082,0.413-0.173,0.616-0.267c0.162-0.076,0.325-0.149,0.484-0.233  c0.186-0.098,0.364-0.207,0.544-0.316c0.089-0.054,0.179-0.106,0.267-0.162c0.185-0.119,0.365-0.246,0.542-0.375  c0.043-0.031,0.088-0.058,0.13-0.09c0.007-0.005,0.009-0.014,0.016-0.019C60.273,57.756,62,54.58,62,51C62,44.935,57.065,40,51,40z   M46,58.471V56c0-2.206,1.794-4,4-4h2c2.206,0,4,1.794,4,4v2.471c-0.372,0.25-0.76,0.469-1.161,0.657  c-0.001,0-0.002,0.001-0.003,0.001c-2.407,1.126-5.266,1.126-7.673,0c-0.001,0-0.002-0.001-0.003-0.001  C46.76,58.94,46.372,58.721,46,58.471z M51,50c-1.103,0-2-0.897-2-2s0.897-2,2-2s2,0.897,2,2S52.103,50,51,50z M58,56.644V56  c0-2.543-1.592-4.716-3.83-5.588C54.683,49.74,55,48.91,55,48c0-2.206-1.794-4-4-4s-4,1.794-4,4c0,0.91,0.317,1.74,0.83,2.412  C45.592,51.284,44,53.457,44,56v0.644c-1.248-1.545-2-3.508-2-5.644c0-4.962,4.037-9,9-9s9,4.038,9,9  C60,53.137,59.248,55.099,58,56.644z"></path><rect x="6" y="47" width="7" height="2"></rect><rect x="6" y="51" width="8" height="2"></rect><rect x="6" y="55" width="8" height="2"></rect><path d="M37.786,5.646c-0.677-0.154-1.364-0.281-2.044-0.379l-0.285,1.979c0.627,0.09,1.262,0.208,1.888,0.35L37.786,5.646z"></path><path d="M22.314,9.034l-0.809-1.829c-0.629,0.278-1.258,0.586-1.866,0.916l0.951,1.759C21.153,9.575,21.733,9.291,22.314,9.034z"></path><path d="M32,7c0.52,0,1.035,0.017,1.547,0.049l0.129-1.996C33.121,5.018,32.562,5,32,5l-0.403,0.003l0.031,2L32,7z"></path><path d="M25.936,7.772l-0.504-1.936c-0.666,0.173-1.335,0.377-1.99,0.605L24.1,8.331C24.704,8.12,25.321,7.933,25.936,7.772z"></path><path d="M29.712,7.107l-0.189-1.991c-0.689,0.065-1.382,0.159-2.06,0.278l0.346,1.97C28.435,7.254,29.075,7.168,29.712,7.107z"></path><path d="M9.601,39.638c-0.229-0.593-0.437-1.204-0.617-1.815l-1.918,0.566c0.195,0.664,0.421,1.326,0.67,1.97L9.601,39.638z"></path><path d="M6.159,28.1l1.988,0.221c0.07-0.634,0.167-1.272,0.288-1.897l-1.963-0.38C6.341,26.72,6.236,27.412,6.159,28.1z"></path><path d="M6,31c0,0.419,0.01,0.836,0.029,1.25l1.998-0.093C8.01,31.774,8,31.388,8,31c0-0.255,0.004-0.509,0.012-0.762l-1.998-0.066  C6.004,30.447,6,30.723,6,31z"></path><path d="M8.513,35.962c-0.131-0.627-0.238-1.264-0.318-1.893L6.21,34.322c0.087,0.681,0.203,1.371,0.346,2.05L8.513,35.962z"></path><path d="M9.463,22.727l-1.877-0.688c-0.239,0.651-0.454,1.317-0.638,1.979l1.926,0.536C9.045,23.943,9.242,23.329,9.463,22.727z"></path><path d="M19.942,54.041c0.613,0.321,1.245,0.621,1.879,0.891l0.783-1.84c-0.584-0.249-1.168-0.526-1.734-0.823L19.942,54.041z"></path><path d="M55.305,36.76l1.941,0.479c0.12-0.485,0.226-0.977,0.318-1.473L55.598,35.4C55.513,35.858,55.415,36.312,55.305,36.76z"></path><path d="M55.782,27.754c0.086,0.634,0.147,1.276,0.181,1.91l1.998-0.107c-0.037-0.687-0.104-1.384-0.196-2.071L55.782,27.754z"></path><path d="M57.993,31.633l-2-0.047c-0.015,0.631-0.055,1.276-0.121,1.917l1.99,0.204C57.933,33.014,57.977,32.315,57.993,31.633z"></path><path d="M53.559,20.44c0.28,0.572,0.541,1.162,0.774,1.754l1.861-0.733c-0.254-0.643-0.536-1.283-0.841-1.903L53.559,20.44z"></path><path d="M54.966,24.008c0.184,0.603,0.347,1.228,0.485,1.857l1.953-0.428c-0.149-0.682-0.326-1.359-0.524-2.013L54.966,24.008z"></path></svg></g></svg>