<svg height='100px' width='100px'  fill="#000000" xmlns="http://www.w3.org/2000/svg" viewBox="0 0 64 64" x="0px" y="0px"><title>coding, program, coder, optimization, code, </title><g><path d="M4,48V60H36V48Zm17,1h2v2H21Zm0,4h2v2H21Zm-4-4h2v2H17Zm0,4h2v2H17Zm-4-4h2v2H13Zm0,4h2v2H13ZM7,59H5V57H7Zm0-4H5V53H7Zm0-4H5V49H7Zm4,8H9V57h2Zm0-4H9V53h2Zm0-4H9V49h2Zm16,8H13V57H27Zm0-4H25V53h2Zm0-4H25V49h2Zm4,8H29V57h2Zm0-4H29V53h2Zm0-4H29V49h2Zm4,8H33V57h2Zm0-4H33V53h2Zm0-4H33V49h2Z"></path><path d="M54.91,44H53.09A4.1,4.1,0,0,0,49,48.09v7.81A4.1,4.1,0,0,0,53.09,60h1.81A4.1,4.1,0,0,0,59,55.91V48.09A4.1,4.1,0,0,0,54.91,44ZM55,50H53V46h2Z"></path><rect x="21" y="40" width="22" height="2"></rect><path d="M9.5,41h-5a.5.5,0,0,1-.5-.5v-2a.5.5,0,0,1,.5-.5H24V36H4.5A2.5,2.5,0,0,0,2,38.5v2A2.5,2.5,0,0,0,4.5,43h5a.5.5,0,0,1,.5.5V47h2V43.5A2.5,2.5,0,0,0,9.5,41Z"></path><path d="M59.66,36H40v2H59.66a.34.34,0,0,1,.34.34v.31a.34.34,0,0,1-.34.34H55.34A2.35,2.35,0,0,0,53,41.34V43h2V41.34a.34.34,0,0,1,.34-.34h4.31A2.35,2.35,0,0,0,62,38.66v-.31A2.35,2.35,0,0,0,59.66,36Z"></path><path d="M50.79,4H13.21a.21.21,0,0,0-.21.21V28l.21,0H50.79L51,28V4.21A.21.21,0,0,0,50.79,4ZM27.71,24.29l-1.41,1.41L16.59,16l9.71-9.71,1.41,1.41L19.41,16Zm3.13,1.17L28.88,25,33.17,6.53,35.12,7Zm6.87.24-1.41-1.41L44.59,16,36.29,7.71l1.41-1.41L47.41,16Z"></path><polygon points="29.69 34 27.44 40 36.56 40 34.31 34 29.69 34"></polygon><path d="M50.79,30H13.21a.21.21,0,0,0-.21.21v1.58a.21.21,0,0,0,.21.21H50.79a.21.21,0,0,0,.21-.21V30.21A.21.21,0,0,0,50.79,30Z"></path></g></svg>