<svg height='100px' width='100px'  fill="#3072f9" xmlns:x="http://ns.adobe.com/Extensibility/1.0/" xmlns:i="http://ns.adobe.com/AdobeIllustrator/10.0/" xmlns:graph="http://ns.adobe.com/Graphs/1.0/" xmlns="http://www.w3.org/2000/svg" xmlns:xlink="http://www.w3.org/1999/xlink" version="1.1" x="0px" y="0px" viewBox="0 0 100 100" style="enable-background:new 0 0 100 100;" xml:space="preserve"><g><g i:extraneous="self"><g><path d="M5273.1,2400.1v-2c0-2.8-5-4-9.7-4s-9.7,1.3-9.7,4v2c0,1.8,0.7,3.6,2,4.9l5,4.9c0.3,0.3,0.4,0.6,0.4,1v6.4     c0,0.4,0.2,0.7,0.6,0.8l2.9,0.9c0.5,0.1,1-0.2,1-0.8v-7.2c0-0.4,0.2-0.7,0.4-1l5.1-5C5272.4,2403.7,5273.1,2401.9,5273.1,2400.1z      M5263.4,2400c-4.8,0-7.4-1.3-7.5-1.8v0c0.1-0.5,2.7-1.8,7.5-1.8c4.8,0,7.3,1.3,7.5,1.8C5270.7,2398.7,5268.2,2400,5263.4,2400z"></path><path d="M5268.4,2410.3c-0.6,0-1,0.4-1,1c0,0.6,0.4,1,1,1h4.3c0.6,0,1-0.4,1-1c0-0.6-0.4-1-1-1H5268.4z"></path><path d="M5272.7,2413.7h-4.3c-0.6,0-1,0.4-1,1c0,0.6,0.4,1,1,1h4.3c0.6,0,1-0.4,1-1C5273.7,2414.1,5273.3,2413.7,5272.7,2413.7z"></path><path d="M5272.7,2417h-4.3c-0.6,0-1,0.4-1,1c0,0.6,0.4,1,1,1h4.3c0.6,0,1-0.4,1-1C5273.7,2417.5,5273.3,2417,5272.7,2417z"></path></g><g><path d="M17.5,61.3c-0.3-1.7-0.5-3.6-0.5-5.4c0-14.1,8.9-26.2,21.4-30.9v-7.7c-16.6,5-28.8,20.4-28.8,38.6c0,3.2,0.4,6.3,1.1,9.3     L17.5,61.3z"></path><path d="M83,55.9c0,1.8-0.2,3.6-0.5,5.4l6.7,3.9c0.7-2.9,1.1-6.1,1.1-9.3c0-18.2-12.1-33.6-28.7-38.6v7.7     C74.1,29.7,83,41.8,83,55.9z"></path><path d="M50,88.9c-8,0-15.3-2.8-21-7.5l-6.6,3.8c7.2,6.9,16.9,11.1,27.6,11.1s20.4-4.2,27.6-11L71,81.4     C65.3,86.1,58,88.9,50,88.9z"></path><path d="M37.2,34.9c-0.4,0.8-0.3,1.7,0.2,2.3l10.9,14.2c0.4,0.5,1.1,0.9,1.8,0.9c0.7,0,1.3-0.3,1.8-0.9l10.9-14.2     c0.3-0.4,0.5-0.9,0.5-1.4c0-0.3-0.1-0.7-0.2-1c-0.4-0.8-1.1-1.2-2-1.2H56V5.6c0-1-0.8-1.8-1.8-1.8h-8.2c-1,0-1.8,0.8-1.8,1.8     v28.1h-4.9C38.3,33.6,37.5,34.1,37.2,34.9z"></path><path d="M36.1,76.5c0.4,0.7,1.2,1.2,2.1,1.1c0.8-0.1,1.6-0.6,1.9-1.4l6.8-16.5c0.3-0.6,0.2-1.4-0.1-2c-0.3-0.6-1-1-1.6-1.1     l-17.7-2.3c-0.5-0.1-1,0-1.4,0.3c-0.3,0.2-0.5,0.4-0.7,0.7c-0.5,0.7-0.5,1.6-0.1,2.3l2.5,4.3l-24.3,14c-0.9,0.5-1.2,1.6-0.7,2.5     l4.1,7.1c0.5,0.9,1.6,1.2,2.5,0.7l24.3-14L36.1,76.5z"></path><path d="M96.6,76l-24.3-14l2.5-4.3c0.4-0.7,0.4-1.6-0.1-2.3c-0.5-0.7-1.3-1.1-2.1-1l-17.7,2.3c-0.7,0.1-1.3,0.5-1.6,1.1     c-0.3,0.6-0.4,1.3-0.1,2l6.8,16.5c0.2,0.5,0.5,0.8,0.9,1.1c0.3,0.2,0.6,0.3,1,0.3c0.8,0.1,1.6-0.4,2.1-1.1l2.5-4.3l24.3,14     c0.9,0.5,2,0.2,2.5-0.7l4.1-7.1C97.8,77.6,97.5,76.5,96.6,76z"></path></g></g></g></svg>