<svg height='100px' width='100px'  fill="#3072f9" xmlns:x="http://ns.adobe.com/Extensibility/1.0/" xmlns:i="http://ns.adobe.com/AdobeIllustrator/10.0/" xmlns:graph="http://ns.adobe.com/Graphs/1.0/" xmlns="http://www.w3.org/2000/svg" xmlns:xlink="http://www.w3.org/1999/xlink" version="1.1" x="0px" y="0px" viewBox="0 0 100 100" style="enable-background:new 0 0 100 100;" xml:space="preserve"><g><g i:extraneous="self"><g><path d="M91.3,9.8H8.7c-3.4,0-6.2,2.8-6.2,6.2v67.9c0,3.4,2.8,6.2,6.2,6.2h82.6c3.4,0,6.2-2.8,6.2-6.2V16.1     C97.5,12.6,94.7,9.8,91.3,9.8z M32.1,16.2c1.7,0,3,1.4,3,3c0,1.7-1.4,3-3,3c-1.7,0-3-1.4-3-3C29.1,17.6,30.5,16.2,32.1,16.2z      M22.8,16.2c1.7,0,3,1.4,3,3c0,1.7-1.4,3-3,3c-1.7,0-3-1.4-3-3C19.7,17.6,21.1,16.2,22.8,16.2z M13.4,16.2c1.7,0,3,1.4,3,3     c0,1.7-1.4,3-3,3c-1.7,0-3-1.4-3-3C10.4,17.6,11.7,16.2,13.4,16.2z M89.8,82.5H10.2V28.9h79.6V82.5z"></path><path d="M80.6,47c-0.9-5.4-5.5-9.5-11.1-9.5c-1.3,0-2.5,0.3-3.7,0.7l4.8,8.9H80.6z"></path><path d="M69.5,60.1c5.6,0,10.3-4.1,11.1-9.5H69.5c-0.7,0-1.3-0.4-1.6-0.9l-5.3-9.8c-2.7,2.1-4.5,5.3-4.5,9     C58.2,55,63.2,60.1,69.5,60.1z"></path><path d="M21.2,60.9c0.6,0,1.1-0.3,1.5-0.7l6.9-9.2l5.7,4.2c0.4,0.3,0.9,0.4,1.4,0.3c0.5-0.1,0.9-0.3,1.2-0.7l6.8-9.2l1.9,1.4     c0.4,0.3,0.9,0.4,1.4,0.1c0.5-0.2,0.7-0.7,0.8-1.2l0.3-7.5c0-0.4-0.2-0.9-0.5-1.1c-0.4-0.3-0.8-0.3-1.2-0.2l-7.1,2.4     c-0.5,0.2-0.8,0.6-0.9,1.1c-0.1,0.5,0.1,1,0.5,1.3l1.9,1.4L36,51.2l-5.7-4.3c-0.4-0.3-0.9-0.4-1.4-0.3c-0.5,0.1-0.9,0.3-1.2,0.7     l-8,10.7c-0.6,0.8-0.4,2,0.4,2.6C20.4,60.8,20.8,60.9,21.2,60.9z"></path><path d="M20.6,74.2h5.1c0.7,0,1.3-0.6,1.3-1.3v-7.2c0-0.7-0.6-1.3-1.3-1.3h-5.1c-0.7,0-1.3,0.6-1.3,1.3V73     C19.4,73.7,19.9,74.2,20.6,74.2z"></path><path d="M37.2,59.4h-5.1c-0.7,0-1.3,0.6-1.3,1.3V73c0,0.7,0.6,1.3,1.3,1.3h5.1c0.7,0,1.3-0.6,1.3-1.3V60.7     C38.5,60,37.9,59.4,37.2,59.4z"></path><path d="M43.5,54.3c-0.7,0-1.3,0.6-1.3,1.3V73c0,0.7,0.6,1.3,1.3,1.3h5.1c0.7,0,1.3-0.6,1.3-1.3V55.6c0-0.7-0.6-1.3-1.3-1.3H43.5     z"></path><path d="M59.5,74.2h19.9c0.7,0,1.3-0.6,1.3-1.3v-5.1c0-0.7-0.6-1.3-1.3-1.3H59.5c-0.7,0-1.3,0.6-1.3,1.3V73     C58.2,73.7,58.7,74.2,59.5,74.2z"></path></g></g></g></svg>
