<svg height='200px' width='200px'  fill="#3072f9" xmlns="http://www.w3.org/2000/svg" xmlns:xlink="http://www.w3.org/1999/xlink" version="1.1" x="0px" y="0px" viewBox="0 0 100 100" enable-background="new 0 0 100 100" xml:space="preserve"><g><path d="M93.548,48.548H53.984V45c0-0.829-0.672-1.5-1.5-1.5s-1.5,0.671-1.5,1.5v10c0,0.828,0.672,1.5,1.5,1.5s1.5-0.672,1.5-1.5   v-3.548h39.564C94.35,51.452,95,50.802,95,50S94.35,48.548,93.548,48.548z"></path><path d="M47.516,43.5c-0.829,0-1.5,0.671-1.5,1.5v3.548H6.452C5.65,48.548,5,49.198,5,50s0.65,1.452,1.452,1.452h39.564V55   c0,0.828,0.671,1.5,1.5,1.5s1.5-0.672,1.5-1.5V45C49.016,44.171,48.344,43.5,47.516,43.5z"></path></g></svg>