<svg height='100px' width='100px'  fill="#3072f9" xmlns="http://www.w3.org/2000/svg" xmlns:xlink="http://www.w3.org/1999/xlink" viewBox="0 0 200 200" version="1.1" x="0px" y="0px"><title>cloud</title><desc>Created with Sketch.</desc><g stroke="none" stroke-width="1" fill="none" fill-rule="evenodd"><path d="M134.461167,120.000251 C132.804452,120.021698 131.478805,121.382117 131.500251,123.038833 C131.521698,124.695548 132.882117,126.021195 134.538833,125.999749 L137.038833,125.889714 C137.114091,125.888739 137.189286,125.884933 137.264258,125.878304 C153.477482,124.444573 166,110.616707 166,94 C166,77.8436139 154.167729,64.3447719 138.643664,62.2744945 C131.321213,46.9973422 115.828754,37 98.5,37 C75.1122114,37 55.9207373,55.0489858 54.1355788,78.0003759 C54.0904003,78.0001253 54.0452072,78 54,78 C40.745166,78 30,88.745166 30,102 C30,115.254834 40.745166,126.000735 54,126.000735 L66.4511719,126.000735 C68.1080261,126.000735 69.4511719,124.656854 69.4511719,123 C69.4511719,121.343146 68.1080261,120 66.4511719,120 L54,120 C44.0588745,120 36,111.941125 36,102 C36,92.0588745 44.0588745,84 54,84 C54.8686538,84 55.7286624,84.0613102 56.5760411,84.1825588 C58.3754508,84.4400302 59.9885851,83.0508321 60.000904,81.2331371 C60.1442449,60.0828664 77.3364259,43 98.5,43 C114.016423,43 127.830082,52.26304 133.869982,66.2674434 C134.312132,67.2926341 135.287015,67.987482 136.400363,68.0709718 C149.651538,69.0646769 160,80.350839 160,94 C160,107.484161 149.894564,118.680516 136.845065,119.891719 L134.461167,120.000251 Z" fill="#3072f9" fill-rule="nonzero"></path><path d="M103,86.988288 C103,88.6516106 101.656854,90 100,90 C98.3431458,90 97,88.6516106 97,86.988288 L97,79.011712 C97,77.3483894 98.3431458,76 100,76 C101.656854,76 103,77.3483894 103,79.011712 L103,86.988288 Z M119,85 C120.656854,85 122,86.3483894 122,88.011712 L122,95.988288 C122,97.6516106 120.656854,99 119,99 C117.343146,99 116,97.6516106 116,95.988288 L116,88.011712 C116,86.3483894 117.343146,85 119,85 Z M81,85 C82.6568542,85 84,86.3483894 84,88.011712 L84,95.988288 C84,97.6516106 82.6568542,99 81,99 C79.3431458,99 78,97.6516106 78,95.988288 L78,88.011712 C78,86.3483894 79.3431458,85 81,85 Z M119,76 C120.656854,76 122,77.3431458 122,79 C122,80.6568542 120.656854,82 119,82 C117.343146,82 116,80.6568542 116,79 C116,77.3431458 117.343146,76 119,76 Z M81,76 C82.6568542,76 84,77.3431458 84,79 C84,80.6568542 82.6568542,82 81,82 C79.3431458,82 78,80.6568542 78,79 C78,77.3431458 79.3431458,76 81,76 Z M100,67 C101.656854,67 103,68.3431458 103,70 C103,71.6568542 101.656854,73 100,73 C98.3431458,73 97,71.6568542 97,70 C97,68.3431458 98.3431458,67 100,67 Z" fill="#3072f9" fill-rule="nonzero"></path><path d="M100,94 C101.656854,94 103,95.3483894 103,97.011712 L103.000742,148.483653 C106.776933,149.739801 109.5,153.301897 109.5,157.5 C109.5,162.746705 105.246705,167 100,167 C94.7532949,167 90.5,162.746705 90.5,157.5 C90.5,153.301528 93.2235456,149.739175 97.0002542,148.483322 L97,97.011712 C97,95.3483894 98.3431458,94 100,94 Z M100,154 C98.0670034,154 96.5,155.567003 96.5,157.5 C96.5,159.432997 98.0670034,161 100,161 C101.932997,161 103.5,159.432997 103.5,157.5 C103.5,155.567003 101.932997,154 100,154 Z M81.0040388,103 C82.5995688,103 83.9037906,104.24892 83.9949142,105.823727 L84,106 L84,134.913723 C84,141.989371 78.3547937,147.744733 71.3283731,147.910069 L71.0175014,147.913723 L70.7638097,147.913715 C69.8465989,152.200056 66.0416955,155.413723 61.4872105,155.413723 C56.2475688,155.413723 52,151.160428 52,145.913723 C52,140.667018 56.2475688,136.413723 61.4872105,136.413723 C65.2993458,136.413723 68.5863387,138.665156 70.0944211,141.912562 L71.0175014,141.913723 C74.7978569,141.913723 77.8773525,138.90894 78.004024,135.154373 L78.0080776,134.913723 L78.0080776,106 C78.0080776,104.343146 79.3494151,103 81.0040388,103 Z M118.995961,103 C120.650585,103 121.991922,104.343146 121.991922,106 L121.991922,106 L121.991922,134.913723 L121.995976,135.154373 C122.122648,138.90894 125.202143,141.913723 128.982499,141.913723 L128.982499,141.913723 L129.905579,141.912562 C131.413661,138.665156 134.700654,136.413723 138.512789,136.413723 C143.752431,136.413723 148,140.667018 148,145.913723 C148,151.160428 143.752431,155.413723 138.512789,155.413723 C133.958304,155.413723 130.153401,152.200056 129.23619,147.913715 L129.23619,147.913715 L128.982499,147.913723 L128.671627,147.910069 C121.645206,147.744733 116,141.989371 116,134.913723 L116,134.913723 L116,106 L116.005086,105.823727 C116.096209,104.24892 117.400431,103 118.995961,103 Z M61.4872105,142.413723 C59.5568162,142.413723 57.9919224,143.980726 57.9919224,145.913723 C57.9919224,147.84672 59.5568162,149.413723 61.4872105,149.413723 C63.4176048,149.413723 64.9824986,147.84672 64.9824986,145.913723 C64.9824986,143.980726 63.4176048,142.413723 61.4872105,142.413723 Z M138.512789,142.413723 C136.582395,142.413723 135.017501,143.980726 135.017501,145.913723 C135.017501,147.84672 136.582395,149.413723 138.512789,149.413723 C140.443184,149.413723 142.008078,147.84672 142.008078,145.913723 C142.008078,143.980726 140.443184,142.413723 138.512789,142.413723 Z" fill="#3072f9" fill-rule="nonzero"></path></g></svg>