<svg height='100px' width='100px'  fill="#3072f9" xmlns="http://www.w3.org/2000/svg" data-name="Layer 1" viewBox="0 0 100 100" x="0px" y="0px"><title>Artboard 34</title><path d="M52.37,49.39V65.28l13.72,7.88-2.37,4.11L49.9,69.33,36.28,77.26l-2.37-4.11,13.72-8V49.39Zm4.6-23L54.38,40.47H67.88v-5A3.54,3.54,0,0,0,66.6,32.7,57.83,57.83,0,0,0,57,26.4ZM57.71,14c1.64-7.51-2.58-7.53-2.58-7.53a4.26,4.26,0,0,0-4.67-2.78,28.49,28.49,0,0,1-6.38-.06,2,2,0,0,0,.72,1.54C41,7.52,41.9,12.58,42.24,14c-.64,0-1.31.49-.6,3,.55,1.94,1.06,2.48,1.45,2.51a8.11,8.11,0,0,0,1,2.72v2.42l5.36,3.9-2,2.56,1.35,2.18-1.06,7.16h4.57l-1.06-7.16,1.35-2.18-2-2.56,5.36-3.9V22.26a8.11,8.11,0,0,0,1-2.72c.39,0,.9-.57,1.45-2.51C59.09,14.47,58.37,14,57.71,14ZM33.4,32.7a3.54,3.54,0,0,0-1.28,2.74v5H45.62L43,26.4A57.83,57.83,0,0,0,33.4,32.7ZM88.23,82.48,85.69,96.33H99v-5a3.49,3.49,0,0,0-1.26-2.7A56.93,56.93,0,0,0,88.23,82.48ZM73.11,73.13c.54,1.92,1,2.45,1.43,2.48a8,8,0,0,0,1,2.74v2.44l5.28,3.84-2,2.52,1.33,2.14-1,7h4.5l-1-7,1.33-2.14-2-2.52,5.28-3.84V78.32a7.87,7.87,0,0,0,1-2.7c.38,0,.89-.57,1.43-2.48.74-2.62,0-3-.71-2.95a6.9,6.9,0,0,0,.29-1.08c1.13-6.79-2.21-7-2.21-7a5.14,5.14,0,0,0-2-1.87,6.79,6.79,0,0,0-4.14-.87,6,6,0,0,0-1.65.31h0a7.26,7.26,0,0,0-1.81.93,9.7,9.7,0,0,0-1.86,1.54,7.51,7.51,0,0,0-2,3.53,7.68,7.68,0,0,0,0,3.45h0a6.88,6.88,0,0,0,.29,1.08C73.15,70.12,72.36,70.51,73.11,73.13ZM63.78,91.37v5H77.06L74.52,82.48A56.92,56.92,0,0,0,65,88.68,3.49,3.49,0,0,0,63.78,91.37Zm-40.84,5H36.22v-5A3.49,3.49,0,0,0,35,88.68a56.93,56.93,0,0,0-9.48-6.2ZM10.36,73.13c.54,1.92,1,2.45,1.43,2.48a8,8,0,0,0,1,2.74v2.44l5.28,3.84-2,2.52,1.33,2.14-1,7h4.5l-1-7,1.33-2.14-2-2.52,5.28-3.84V78.32a7.87,7.87,0,0,0,1-2.7c.38,0,.89-.57,1.43-2.48.74-2.62,0-3-.71-2.95a6.9,6.9,0,0,0,.29-1.08c1.13-6.79-2.21-7-2.21-7a5.14,5.14,0,0,0-2-1.87,6.79,6.79,0,0,0-4.14-.87,6,6,0,0,0-1.65.31h0a7.26,7.26,0,0,0-1.81.93,9.7,9.7,0,0,0-1.86,1.54,7.51,7.51,0,0,0-2,3.53,7.68,7.68,0,0,0,0,3.45h0a6.88,6.88,0,0,0,.29,1.08C10.4,70.12,9.61,70.51,10.36,73.13ZM1,91.37v5H14.31L11.77,82.48a56.92,56.92,0,0,0-9.48,6.2A3.49,3.49,0,0,0,1,91.37Z"></path></svg>