<svg height='100px' width='100px'  fill="#000000" xmlns="http://www.w3.org/2000/svg" viewBox="0 0 64 64" x="0px" y="0px"><title>design thinking-think-ux-design-process</title><g data-name="design thinking-think-ux-design-process"><path d="M60,25.08a17.33,17.33,0,0,0-4-10.72l-1.54,1.28A15.31,15.31,0,0,1,58,25.12Z"></path><path d="M43.63,41l.14,2A17.56,17.56,0,0,0,60,26.78l-2-.14A15.54,15.54,0,0,1,43.63,41Z"></path><path d="M38.92,3.44a1,1,0,0,0-1.66,0L33.17,9.53a1,1,0,0,0-.17.56v.72l-.28.19a18.45,18.45,0,0,0-4-1.46A18.73,18.73,0,0,0,25.23,9a1.34,1.34,0,0,0,.1-.44,1.4,1.4,0,0,0-.41-1L22.77,5.43a1.44,1.44,0,0,0-2,0L19.53,6.73V4.93a1.41,1.41,0,0,0-1.41-1.41h-3A1.41,1.41,0,0,0,13.7,4.93v1.8l-1.3-1.3a1.42,1.42,0,0,0-2,0L8.31,7.58a1.41,1.41,0,0,0,0,2L9.6,10.85H7.79a1.41,1.41,0,0,0-1.41,1.41v3a1.41,1.41,0,0,0,1.41,1.4H9.6L8.31,18a1.39,1.39,0,0,0-.21,1.66,15,15,0,0,0-1,6.77L3.3,33.67a2.5,2.5,0,0,0,1.94,3.67L6,37.4l.94,4a10.79,10.79,0,0,0,1.62,4.53c1.25,1.89,4.35,2.85,6.7,2.82l.1,0a.25.25,0,0,1,.07.18V60a1,1,0,0,0,1,1h21a1,1,0,0,0,1-1.22l-1.73-7.64A10.52,10.52,0,0,1,39,42.74l.07-.08a17.44,17.44,0,0,0,3,.34l0-2A15.41,15.41,0,0,1,27,26.64l-2,.14A17.39,17.39,0,0,0,37,42.11a12.42,12.42,0,0,0-2.26,10.5L36.15,59H17.42V48.92a2.28,2.28,0,0,0-.68-1.62,2.11,2.11,0,0,0-1.53-.6c-2,0-4.28-.84-5-1.92A9.22,9.22,0,0,1,8.89,41L7.76,36.24a1,1,0,0,0-.88-.77l-1.45-.13a.45.45,0,0,1-.36-.24.53.53,0,0,1,0-.5L9,27a.93.93,0,0,0,.1-.57,13.25,13.25,0,0,1,.51-5.2l.78.77a1.4,1.4,0,0,0,1,.44,1.37,1.37,0,0,0,1-.41l1.27-1.28v1.8A1.41,1.41,0,0,0,15.11,24h3a1.41,1.41,0,0,0,1.41-1.41v-1.8l1.27,1.28a1.42,1.42,0,0,0,2,0l2.12-2.13a1.41,1.41,0,0,0,0-2l-1.29-1.28h1.82a1.41,1.41,0,0,0,1.41-1.4v-3a1.4,1.4,0,0,0-.56-1.12,18.77,18.77,0,0,1,1.94.34,16.45,16.45,0,0,1,2.7.9A17.32,17.32,0,0,0,25,25.08l2,0a15.33,15.33,0,0,1,6-11.83v19A4.71,4.71,0,0,0,37.71,37h.76a4.71,4.71,0,0,0,4.71-4.71V10.09A1,1,0,0,0,43,9.53Zm-29,15.37-.57.57.57-.58Zm15-4.14H22.21a1.41,1.41,0,0,0-1.29.86,1.42,1.42,0,0,0,.29,1.55L23.08,19,21.8,20.23l-1.87-1.87a1.41,1.41,0,0,0-2.4,1V22H15.7V19.36a1.4,1.4,0,0,0-.85-1.3,1.44,1.44,0,0,0-1.55.3l-1.87,1.87-1.28-1.29.92-.91.94-1a1.41,1.41,0,0,0-1-2.41H8.38V12.85H11a1.37,1.37,0,0,0,1.14-.58A1.43,1.43,0,0,0,12,10.44L10.15,8.58l1.28-1.29L13.3,9.16a1.43,1.43,0,0,0,1.53.31,1.41,1.41,0,0,0,.87-1.31V5.52h1.83V8.16a1.42,1.42,0,0,0,.88,1.31,1.4,1.4,0,0,0,1.52-.31L21.8,7.29l1.28,1.28L21.2,10.46a1.41,1.41,0,0,0,1,2.39h2.65ZM38.09,5.79,40.25,9h-.11a3.07,3.07,0,0,0-2,.8,2.91,2.91,0,0,0-1.2-.68,3.41,3.41,0,0,0-.54-.1h-.41Zm1,6.26a1,1,0,1,1,2.09,0V28.5a1,1,0,0,1-1,1.05,1.06,1.06,0,0,1-1-1.05ZM35,28.5V12.05a.92.92,0,0,1,.08-.4,1.1,1.1,0,0,1,.2-.31l0,0a1,1,0,0,1,.29-.2h0a1.07,1.07,0,0,1,.34-.09h0a1.14,1.14,0,0,1,.37,0,1.05,1.05,0,0,1,.75,1V28.5a1,1,0,0,1-1,1.05,1.06,1.06,0,0,1-1-1.05ZM38.47,35h-.76A2.72,2.72,0,0,1,35,32.29v-.92l.31.08.17,0a2.76,2.76,0,0,0,.57.06,3,3,0,0,0,2-.8,3.1,3.1,0,0,0,2,.8,3,3,0,0,0,1-.2v.94A2.72,2.72,0,0,1,38.47,35Z"></path><path d="M47,36a1,1,0,0,0,1,1h3a1,1,0,0,0,1-1l.94-21.65A4.23,4.23,0,0,0,53.78,13,4.39,4.39,0,0,0,54,11.56c0-2.07-3-7.09-3.59-8.08A1,1,0,0,0,49.56,3h0a1,1,0,0,0-.86.48,49,49,0,0,0-2.94,5.67,6.68,6.68,0,0,0-.64,2.41,4.41,4.41,0,0,0,.93,2.69Zm3-1H49l-.84-19.24.35.09a2.44,2.44,0,0,0,.26.06,4.13,4.13,0,0,0,.78.08h.05l.23,0a4.36,4.36,0,0,0,.52-.05l.29-.07.27-.06ZM47.61,9.92a37.85,37.85,0,0,1,2-3.93C50.76,8.12,52,10.66,52,11.56a2.42,2.42,0,0,1-.12.76,2.4,2.4,0,0,1-3.08,1.52,2.32,2.32,0,0,1-1-.62,2.42,2.42,0,0,1-.65-1.66A5,5,0,0,1,47.61,9.92Z"></path><path d="M17.25,10.6a2.48,2.48,0,0,0-.63-.07,3.21,3.21,0,0,0-3.05,2.17,3.15,3.15,0,0,0-.18,1.06,3.23,3.23,0,1,0,6.46,0A3.2,3.2,0,0,0,17.25,10.6ZM16.62,15a1.23,1.23,0,0,1-1.23-1.23,1,1,0,0,1,.07-.4,1.21,1.21,0,0,1,1.16-.83l.23,0a1.25,1.25,0,0,1,1,1.21A1.23,1.23,0,0,1,16.62,15Z"></path></g></svg>