<svg height='100px' width='100px'  fill="#ffff00" xmlns="http://www.w3.org/2000/svg" xmlns:xlink="http://www.w3.org/1999/xlink" version="1.1" x="0px" y="0px" viewBox="0 0 100 100" style="enable-background:new 0 0 100 100;" xml:space="preserve"><g><path d="M50,23.2c-13.7,0-24.9,11.2-24.9,24.9c0,8.6,4.5,16.6,11.8,21.1v14.2c0,7.2,5.9,13,13,13s13-5.9,13-13V69.3   c7.3-4.5,11.8-12.5,11.8-21.1C74.9,34.4,63.7,23.2,50,23.2z M60,81.6H40v-5.9H60V81.6z M50,93.5c-5.1,0-9.4-3.9-10-8.9H60   C59.4,89.6,55.1,93.5,50,93.5z M60.8,67.1c-0.5,0.3-0.8,0.8-0.8,1.3v4.2H40v-4.2c0-0.5-0.3-1-0.8-1.3c-6.8-3.9-11.1-11.2-11.1-19   c0-12.1,9.8-21.9,21.9-21.9S71.9,36,71.9,48.1C71.9,55.9,67.6,63.2,60.8,67.1z"></path><path d="M60.7,40.1c-0.7-0.5-1.6-0.3-2.1,0.3L46.7,57l-5.3-7.5c-0.5-0.7-1.4-0.8-2.1-0.3c-0.7,0.5-0.8,1.4-0.3,2.1l6.6,9.2   c0.3,0.4,0.7,0.6,1.2,0.6c0.5,0,0.9-0.2,1.2-0.6l13.1-18.3C61.5,41.5,61.4,40.6,60.7,40.1z"></path><path d="M50,17.5c0.8,0,1.5-0.7,1.5-1.5V5c0-0.8-0.7-1.5-1.5-1.5S48.5,4.2,48.5,5v11C48.5,16.8,49.2,17.5,50,17.5z"></path><path d="M26.2,26.5c0.3,0.3,0.7,0.4,1.1,0.4s0.8-0.1,1.1-0.4c0.6-0.6,0.6-1.5,0-2.1l-7.8-7.8c-0.6-0.6-1.5-0.6-2.1,0   c-0.6,0.6-0.6,1.5,0,2.1L26.2,26.5z"></path><path d="M73.8,69.7c-0.6-0.6-1.5-0.6-2.1,0c-0.6,0.6-0.6,1.5,0,2.1l7.8,7.8c0.3,0.3,0.7,0.4,1.1,0.4s0.8-0.1,1.1-0.4   c0.6-0.6,0.6-1.5,0-2.1L73.8,69.7z"></path><path d="M72.7,26.9c0.4,0,0.8-0.1,1.1-0.4l7.8-7.8c0.6-0.6,0.6-1.5,0-2.1c-0.6-0.6-1.5-0.6-2.1,0l-7.8,7.8c-0.6,0.6-0.6,1.5,0,2.1   C71.9,26.8,72.3,26.9,72.7,26.9z"></path><path d="M26.2,69.7l-7.8,7.8c-0.6,0.6-0.6,1.5,0,2.1c0.3,0.3,0.7,0.4,1.1,0.4s0.8-0.1,1.1-0.4l7.8-7.8c0.6-0.6,0.6-1.5,0-2.1   C27.8,69.2,26.8,69.2,26.2,69.7z"></path><path d="M93.1,46.6h-11c-0.8,0-1.5,0.7-1.5,1.5s0.7,1.5,1.5,1.5h11c0.8,0,1.5-0.7,1.5-1.5S93.9,46.6,93.1,46.6z"></path><path d="M19.4,48.1c0-0.8-0.7-1.5-1.5-1.5h-11c-0.8,0-1.5,0.7-1.5,1.5s0.7,1.5,1.5,1.5h11C18.7,49.6,19.4,48.9,19.4,48.1z"></path></g></svg>