<svg height='100px' width='100px'  fill="#040000" xmlns="http://www.w3.org/2000/svg" data-name="Layer 1" viewBox="0 0 100 100" x="0px" y="0px"><title>weather icon set</title><path d="M32,24a2.6,2.6,0,1,0,4.51-2.61L31.06,12a2.61,2.61,0,0,0-4.51,2.61Z"></path><path d="M12,31.06l9.4,5.43A2.61,2.61,0,1,0,24,32l-9.4-5.43A2.61,2.61,0,1,0,12,31.06Z"></path><path d="M7.6,52.61H18.46a2.61,2.61,0,0,0,0-5.21H7.6a2.61,2.61,0,0,0,0,5.21Z"></path><path d="M24.94,64.47a2.61,2.61,0,0,0-3.56-1L12,68.94a2.61,2.61,0,1,0,2.6,4.51L24,68A2.61,2.61,0,0,0,24.94,64.47Z"></path><path d="M27.5,89a2.61,2.61,0,0,0,3.56-1l5.43-9.4A2.61,2.61,0,1,0,32,76l-5.43,9.4A2.61,2.61,0,0,0,27.5,89Z"></path><path d="M47.4,81.54V92.39a2.6,2.6,0,1,0,5.21,0V81.54a2.6,2.6,0,1,0-5.21,0Z"></path><path d="M68.94,88a2.61,2.61,0,1,0,4.51-2.61L68,76a2.61,2.61,0,1,0-4.51,2.61Z"></path><path d="M76,68l9.4,5.43A2.61,2.61,0,1,0,88,68.94l-9.4-5.43A2.61,2.61,0,1,0,76,68Z"></path><path d="M78.94,50a2.61,2.61,0,0,0,2.6,2.61H92.4a2.61,2.61,0,0,0,0-5.21H81.54A2.61,2.61,0,0,0,78.94,50Z"></path><path d="M78.62,36.49,88,31.06a2.61,2.61,0,1,0-2.6-4.51L76,32a2.61,2.61,0,1,0,2.6,4.51Z"></path><path d="M64.47,24.94A2.61,2.61,0,0,0,68,24l5.43-9.4A2.61,2.61,0,0,0,68.94,12l-5.43,9.4A2.61,2.61,0,0,0,64.47,24.94Z"></path><path d="M50,21.06a2.61,2.61,0,0,0,2.6-2.61V7.61a2.6,2.6,0,1,0-5.21,0V18.46A2.61,2.61,0,0,0,50,21.06Z"></path><path d="M73.5,50A23.5,23.5,0,1,0,50,73.5,23.53,23.53,0,0,0,73.5,50ZM50,69.5A19.5,19.5,0,1,1,69.5,50,19.52,19.52,0,0,1,50,69.5Z"></path></svg>