<svg height='100px' width='100px'  fill="#050500" xmlns="http://www.w3.org/2000/svg" xmlns:xlink="http://www.w3.org/1999/xlink" version="1.1" x="0px" y="0px" viewBox="0 0 68 68" style="enable-background:new 0 0 68 68;" xml:space="preserve"><style type="text/css">
	.st0{fill:#050500;}
	.st1{fill:none;stroke:#050500;stroke-width:2;stroke-linecap:round;stroke-linejoin:round;stroke-miterlimit:10;}
</style><g><g><g><path class="st0" d="M17,53.9h-0.2c2.5-1.2,4.2-3.7,4.2-6.6c0-4-3.3-7.3-7.3-7.3c-4,0-7.3,3.3-7.3,7.3c0,2.9,1.7,5.4,4.2,6.6     h-0.3C5.1,53.9,1,58,1,63.1V66c0,0.6,0.4,1,1,1h23.2c0.6,0,1-0.4,1-1v-2.9C26.2,58,22.1,53.9,17,53.9z M8.4,47.3     c0-2.9,2.4-5.3,5.3-5.3s5.3,2.4,5.3,5.3c0,2.9-2.4,5.3-5.3,5.3S8.4,50.2,8.4,47.3z M24.2,65H3v-1.9c0-4,3.2-7.2,7.2-7.2H17     c4,0,7.2,3.2,7.2,7.2V65z"></path></g></g><g><g><path class="st0" d="M54.7,51.3h-0.2c3.5-1.1,6.1-4.5,6.1-8.4c0-4.8-4-8.8-8.8-8.8s-8.8,3.9-8.8,8.8c0,3.9,2.6,7.2,6.1,8.4h-0.4     c-6.8,0-12.3,5.5-12.3,12.3V66c0,0.6,0.4,1,1,1H66c0.6,0,1-0.4,1-1v-2.4C67,56.8,61.5,51.3,54.7,51.3z M44.9,42.9     c0-3.7,3.1-6.8,6.8-6.8c3.8,0,6.8,3,6.8,6.8s-3.1,6.8-6.8,6.8C48,49.7,44.9,46.6,44.9,42.9z M65,65H38.3v-1.4     c0-5.7,4.6-10.3,10.3-10.3h6.1c5.7,0,10.3,4.6,10.3,10.3V65z"></path></g></g><g><g><path class="st0" d="M14,30.1l-2.6,7c-0.1,0.4,0,0.8,0.3,1.1c0.3,0.3,0.8,0.3,1.1,0.1l8.5-4.7c1.2,0.2,2.4,0.4,3.6,0.4     c5.8,0,10.8-2.8,13.4-6.8c2.2,0.4,4.4,0.4,6.7-0.1l8.5,4.7c0.4,0.2,0.8,0.1,1.1-0.1c0.3-0.3,0.4-0.7,0.3-1.1l-2.6-7     c2.8-2.5,4.5-5.8,4.5-9.3C56.8,7,50,1,41.5,1c-5.6,0-10.7,2.6-13.4,6.8c-1-0.2-2.1-0.3-3.2-0.3c-8.5,0-15.3,6-15.3,13.3     C9.6,24.3,11.2,27.7,14,30.1z M41.5,3c7.4,0,13.3,5.1,13.3,11.3c0,3.2-1.5,6.1-4.3,8.2c-0.3,0.3-0.5,0.7-0.3,1.1l1.9,5.2     l-6.5-3.6c-0.2-0.1-0.5-0.2-0.7-0.1c-2,0.4-3.9,0.5-5.7,0.2c0.6-1.4,1-3,1-4.6c0-5.7-4.2-10.6-10.1-12.5C32.6,5.1,36.9,3,41.5,3z      M24.9,9.5c7.4,0,13.3,5.1,13.3,11.3c0,6.2-6,11.3-13.3,11.3c-1.1,0-2.3-0.1-3.5-0.4c-0.2-0.1-0.5,0-0.7,0.1l-6.5,3.6l1.9-5.2     c0.2-0.4,0-0.9-0.3-1.1c-2.7-2.2-4.3-5.1-4.3-8.2C11.6,14.6,17.6,9.5,24.9,9.5z"></path></g></g><g><g><path class="st0" d="M20.7,21c0-1.9-1.6-3.5-3.5-3.5S13.7,19,13.7,21c0,1.9,1.6,3.5,3.5,3.5S20.7,22.9,20.7,21z M15.7,21     c0-0.8,0.7-1.5,1.5-1.5s1.5,0.7,1.5,1.5c0,0.8-0.7,1.5-1.5,1.5S15.7,21.8,15.7,21z"></path></g></g><g><g><path class="st0" d="M24.9,24.5c1.9,0,3.5-1.6,3.5-3.5c0-1.9-1.6-3.5-3.5-3.5c-1.9,0-3.5,1.6-3.5,3.5     C21.4,22.9,23,24.5,24.9,24.5z M24.9,19.5c0.8,0,1.5,0.7,1.5,1.5c0,0.8-0.7,1.5-1.5,1.5c-0.8,0-1.5-0.7-1.5-1.5     C23.4,20.1,24.1,19.5,24.9,19.5z"></path></g></g><g><g><path class="st0" d="M32.6,24.5c1.9,0,3.5-1.6,3.5-3.5c0-1.9-1.6-3.5-3.5-3.5c-1.9,0-3.5,1.6-3.5,3.5     C29.1,22.9,30.7,24.5,32.6,24.5z M32.6,19.5c0.8,0,1.5,0.7,1.5,1.5c0,0.8-0.7,1.5-1.5,1.5c-0.8,0-1.5-0.7-1.5-1.5     C31.1,20.1,31.8,19.5,32.6,19.5z"></path></g></g><g><g><path class="st0" d="M38.1,10h12.3c0.6,0,1-0.4,1-1c0-0.6-0.4-1-1-1H38.1c-0.6,0-1,0.4-1,1C37.1,9.5,37.6,10,38.1,10z"></path></g></g><g><g><path class="st0" d="M50.4,12.5h-9.3c-0.6,0-1,0.4-1,1c0,0.6,0.4,1,1,1h9.3c0.6,0,1-0.4,1-1C51.4,12.9,51,12.5,50.4,12.5z"></path></g></g><g><g><path class="st0" d="M50.4,17h-7.3c-0.6,0-1,0.4-1,1c0,0.6,0.4,1,1,1h7.3c0.6,0,1-0.4,1-1C51.4,17.4,51,17,50.4,17z"></path></g></g></g></svg>