<svg height='100px' width='100px'  fill="#050500" xmlns="http://www.w3.org/2000/svg" data-name="Layer 1" viewBox="0 0 512 512" x="0px" y="0px"><title>oil pump</title><path d="M469.393,19.227a8,8,0,0,0-9.745-5.749L383.787,33.044a8,8,0,0,0-5.748,9.745l9.608,37.252-85.756,22.118a89.678,89.678,0,0,0-141.3,36.445L8.307,177.881a8,8,0,0,0-5.748,9.744L19.4,252.9a8,8,0,0,0,9.744,5.748L49,253.528V382H23.1a8.213,8.213,0,0,0-8.1,8.143v95.551A8.357,8.357,0,0,0,23.1,494H91.355c4.418,0,7.645-3.888,7.645-8.306V390.143c0-4.419-3.227-8.143-7.645-8.143H65V249.4l105.652-27.25a90.509,90.509,0,0,0,35.665,30.16L188.679,444H146.686A7.607,7.607,0,0,0,139,451.845v36.969A7.9,7.9,0,0,0,146.686,497H353.708A8.415,8.415,0,0,0,362,488.814V451.845A8.125,8.125,0,0,0,353.708,444H311.714L293.5,246.04a89.909,89.909,0,0,0,40.088-65.874l74.892-19.336,9.609,37.243a8,8,0,0,0,9.744,5.74L439,200.932V499h16V196.805l48.693-12.559a8,8,0,0,0,5.748-9.745ZM83,478H31V398H83ZM32.889,241.159l-12.84-49.783,135.7-35a89.764,89.764,0,0,0,6.71,51.365ZM346,481H155V460H346Zm-50.354-37h-90.9l17.122-186.079a90.737,90.737,0,0,0,56.306-3.781ZM244.308,244.684a73.746,73.746,0,1,1,73.746-73.746A73.829,73.829,0,0,1,244.308,244.684Zm89.441-81.122a89.294,89.294,0,0,0-19.017-48.191l76.912-19.837,12.839,49.784Zm97.833,22.759L395.529,46.539,455.9,30.969,491.951,170.75Z"></path><path d="M244.308,123.762a47.177,47.177,0,1,0,47.176,47.176A47.23,47.23,0,0,0,244.308,123.762Zm0,78.353a31.177,31.177,0,1,1,31.176-31.177A31.212,31.212,0,0,1,244.308,202.115Z"></path></svg>