<svg xmlns="http://www.w3.org/2000/svg" xmlns:xlink="http://www.w3.org/1999/xlink" viewBox="0 0 290.49 59.08"><defs><style>.cls-1{fill:#0072f9;}.cls-1,.cls-10,.cls-11,.cls-12,.cls-2,.cls-3,.cls-4,.cls-5,.cls-6,.cls-7,.cls-8,.cls-9{fill-rule:evenodd;}.cls-2{fill:#0d0654;}.cls-4{fill:#0c0554;}.cls-5{fill:#251e65;}.cls-6{fill:#0541af;}.cls-7{fill:#14115f;}.cls-8{fill:#1b2272;}.cls-9{fill:#053eab;}.cls-10{fill:#063da9;}.cls-11{fill:#054abd;}.cls-12{fill:#054abc;}.cls-13{fill:url(#linear-gradient);}.cls-14{font-size:22.09px;fill:#0b0f63;font-family:Raleway-Light, Raleway;font-weight:300;letter-spacing:0.29em;}.cls-15{letter-spacing:0.3em;}.cls-16{letter-spacing:0.18em;}.cls-17{letter-spacing:0.3em;}</style><linearGradient id="linear-gradient" x1="183.14" y1="1.04" x2="183.14" y2="31.7" gradientUnits="userSpaceOnUse"><stop offset="0" stop-color="#0072fa"/><stop offset="0" stop-color="#0171f9"/><stop offset="1" stop-color="#0640af"/></linearGradient></defs><title>Asset 5</title><g id="Layer_2" data-name="Layer 2"><g id="Layer_1-2" data-name="Layer 1"><path class="cls-1" d="M59.59,23.83l.18,0a4.92,4.92,0,0,0-.14,1.71c0,4,0,8.07,0,12.11,0,5.11,0,10.21,0,15.31a5.65,5.65,0,0,0,.06,1c0,.19,0,.34-.24.34a1.79,1.79,0,0,0-.76-.12c-9.5,0-19,0-28.51,0H3.6a1.51,1.51,0,0,1-1-.14c-.15-.23,0-.43.09-.63,1.34-2.34,2.69-4.69,4.06-7a1.17,1.17,0,0,1,.48-.53,2.07,2.07,0,0,1,.89-.09H50.42c.95,0,1-.07,1-1V33.42a1.34,1.34,0,0,0-.09-.71.53.53,0,0,0-.21-.21,1.57,1.57,0,0,0-.83-.08H16.23a1.55,1.55,0,0,1-1-.15c-.15-.23,0-.43.09-.62q2-3.51,4.06-7a1.17,1.17,0,0,1,.48-.53,2.35,2.35,0,0,1,1-.09H58.39A2.72,2.72,0,0,0,59.59,23.83Z"/><path class="cls-1" d="M59.69,1.47a.11.11,0,0,0,.07,0,14.19,14.19,0,0,0-.12,3.32c0,1.7-.1,3.42.06,5.12,0,.21-.1.26-.27.24a2.41,2.41,0,0,0-1-.11c-6.8,0-13.61,0-20.42,0H29a1.23,1.23,0,0,1-.86-.15c-.16-.23,0-.43.09-.62q2-3.51,4-7a1.23,1.23,0,0,1,.48-.53,2.35,2.35,0,0,1,.95-.09H58.5a1.62,1.62,0,0,0,1-.19A.28.28,0,0,1,59.69,1.47Z"/><path class="cls-2" d="M7.12,46.07,2.64,53.83c-.12.14-.07.35-.21.48s-.06.11-.11.12A3.26,3.26,0,0,1,0,54.27c-.11-.27,0-.47.17-.67,1.48-2.57,3-5.12,4.43-7.69a1,1,0,0,1,.93-.59c.71,0,1.42,0,2.13,0H48.46c.5,0,.65-.12.65-.64,0-3.93,0-7.86,0-11.79-.11-.34.14-.37.36-.4a9.24,9.24,0,0,0,1.05-.06c.28,0,.56-.16.84,0l.11.11c.13.17.07.36.07.54V45.1c0,.67-.11.77-.8.71-.2,0-.41,0-.61,0H8C7.7,45.79,7.34,45.69,7.12,46.07Z"/><path class="cls-3" d="M71.14,27.37q0-13.39,0-26.79c0-.46.1-.62.57-.57.27,0,.38.08.34.35a1.62,1.62,0,0,0,0,.22V54.27c0,.26.13.59-.39.58s-.52-.11-.52-.53q0-13.14,0-26.28Z"/><path class="cls-2" d="M32.62,1.93,28.14,9.69c-.13.14-.07.35-.21.48s-.07.11-.12.12a3.26,3.26,0,0,1-2.28-.16c-.1-.25,0-.44.15-.63,1.49-2.59,3-5.17,4.48-7.77a1,1,0,0,1,.9-.55l1.18,0H57.59l.45,0a5,5,0,0,0,.67,0c.16,0,.39,0,.38.23s-.24.19-.4.21a5.19,5.19,0,0,1-.56,0H33.46C33.16,1.65,32.81,1.57,32.62,1.93Z"/><path class="cls-4" d="M19.71,24.28,15.22,32c-.12.14-.07.36-.21.49a.62.62,0,0,1-.59.23,12.08,12.08,0,0,1-1.7-.16c-.24-.19-.14-.41,0-.6l4.71-8.14a.58.58,0,0,1,.17-.14,7.41,7.41,0,0,1,2.25-.16.18.18,0,0,1,.16.13C20,24,19.8,24.09,19.71,24.28Z"/><path class="cls-5" d="M0,54.27a10.61,10.61,0,0,0,1.87.22c.26,0,.34-.19.48-.33H57.58a3.6,3.6,0,0,1,1.22.12c.13.09.19.19,0,.25s-.37,0-.55.07H18.56l-16.78,0c-.41,0-.83,0-1.24,0C.33,54.56.07,54.6,0,54.27Z"/><path class="cls-6" d="M19.71,24.28a.61.61,0,0,1,.22-.45.93.93,0,0,1,.69-.17H58c.15,0,.3,0,.45,0s0-.13.05-.17a1.1,1.1,0,0,1,1.1.31c-.2.37-.54.33-.88.33H20.53A1.36,1.36,0,0,0,19.71,24.28Z"/><path class="cls-7" d="M58.49,23.52c.17.18.49,0,.65.3H19.93c0-.27-.26-.2-.43-.22-.65-.08-1.29.14-1.93.11.17-.23.43-.21.66-.21.79,0,1.57-.05,2.36-.05H57.15C57.59,23.46,58,23.5,58.49,23.52Z"/><path class="cls-8" d="M12.72,32.6a5.9,5.9,0,0,1,1.39.07.69.69,0,0,0,.87-.3H50c.22,0,.46-.07.64.13-.33.18-.69.06-1,.09s-.42,0-.46.26c-.22,0-.45-.05-.67-.05H15.57c-.75,0-1.5,0-2.24,0C13.12,32.78,12.87,32.84,12.72,32.6Z"/><path class="cls-5" d="M25.53,10.13a10.84,10.84,0,0,0,1.88.22c.26,0,.34-.19.48-.33H58a1.41,1.41,0,0,1,.91.2c.09.18-.05.17-.16.18s-.33,0-.49.06l-30.79,0c-.47,0-.94,0-1.4,0C25.83,10.42,25.56,10.46,25.53,10.13Z"/><path class="cls-9" d="M32.62,1.93c0-.5.39-.45.73-.45H59.08c-.34-.36-.75-.12-1-.31h1c.22.06.5,0,.57.33-.19.33-.51.31-.83.31H33.44A1.36,1.36,0,0,0,32.62,1.93Z"/><path class="cls-10" d="M7.12,46.07c0-.46.34-.45.68-.45,3.1,0,6.21,0,9.32,0h33a4.14,4.14,0,0,1,.61,0c.81.13.81.14.81-.69q0-6.23,0-12.46c.22.15.13.38.13.57v12c0,.77-.1.87-.87.87H7.94A1.37,1.37,0,0,0,7.12,46.07Z"/><path class="cls-11" d="M59.48,54.28a.68.68,0,0,1-.52.11,56,56,0,0,0-5.94-.1H3.14c-.25,0-.53.09-.75-.12l.25-.33c0,.17.12.22.27.22H58.67C59,54.05,59.29,53.94,59.48,54.28Z"/><path class="cls-10" d="M50.6,32.5l-.57,0q-17.18,0-34.36,0c-.23,0-.49.09-.69-.11.07-.12.1-.27.24-.33,0,.16.11.22.26.22H50.24c.37,0,.78-.18,1.12.11Z"/><path class="cls-12" d="M59.48,10.14a.82.82,0,0,1-.59.14,7.56,7.56,0,0,0-1.78-.14H28.64c-.25,0-.53.1-.75-.12l.25-.33c.09.37.4.21.6.21h30C59,9.91,59.3,9.82,59.48,10.14Z"/><path class="cls-13" d="M103.8,6.27C101.85,4.09,99.08,3,95.51,3q-4.42,0-6.44,1.68a5.58,5.58,0,0,0-2,4.53,5.09,5.09,0,0,0,.51,2.41,4.41,4.41,0,0,0,1.59,1.63,10.31,10.31,0,0,0,2.74,1.15c1.11.31,2.44.64,4,1s3.09.72,4.4,1.13a12.46,12.46,0,0,1,3.36,1.55,6.63,6.63,0,0,1,2.13,2.29,6.9,6.9,0,0,1,.74,3.36,7.39,7.39,0,0,1-.78,3.49,7.12,7.12,0,0,1-2.21,2.49,10.43,10.43,0,0,1-3.41,1.51,17.6,17.6,0,0,1-4.4.51,17,17,0,0,1-12-4.51l1.15-1.74a13.88,13.88,0,0,0,4.68,3.17,15.77,15.77,0,0,0,6.21,1.17A11.32,11.32,0,0,0,102,28.34,4.86,4.86,0,0,0,104.23,24a5,5,0,0,0-.6-2.53,5.32,5.32,0,0,0-1.76-1.81,11.87,11.87,0,0,0-3-1.32c-1.19-.36-2.58-.72-4.17-1.06s-3-.7-4.27-1.08a11.45,11.45,0,0,1-3.1-1.45,5.83,5.83,0,0,1-1.9-2.1,6.83,6.83,0,0,1-.64-3.11,8,8,0,0,1,.79-3.61,7.73,7.73,0,0,1,2.19-2.66,9.76,9.76,0,0,1,3.36-1.64A15.91,15.91,0,0,1,95.51,1a14.67,14.67,0,0,1,5.23.87,12.39,12.39,0,0,1,4.17,2.66Z"/><path class="cls-13" d="M112,31.44V1.25h12.41a7.73,7.73,0,0,1,3.53.81,8.92,8.92,0,0,1,2.79,2.15,10.21,10.21,0,0,1,1.83,3,9.15,9.15,0,0,1,.66,3.38,10.33,10.33,0,0,1-.62,3.53,9.73,9.73,0,0,1-1.74,3,8.56,8.56,0,0,1-2.7,2.1,7.62,7.62,0,0,1-3.49.79h-10.5V31.44Zm2.17-13.39h10.41a5.72,5.72,0,0,0,2.68-.62,6,6,0,0,0,2-1.66,7.58,7.58,0,0,0,1.28-2.38,8.66,8.66,0,0,0,.45-2.78,7.65,7.65,0,0,0-.53-2.83A7.85,7.85,0,0,0,129,5.42a7,7,0,0,0-2.13-1.62,5.7,5.7,0,0,0-2.57-.59H114.14Z"/><path class="cls-13" d="M138.38,31.44V1.25h12.54a7.76,7.76,0,0,1,3.53.81,8.92,8.92,0,0,1,2.79,2.15,10.21,10.21,0,0,1,1.83,3,9.35,9.35,0,0,1,.65,3.38,10.27,10.27,0,0,1-.51,3.21,9.53,9.53,0,0,1-1.44,2.78,8.14,8.14,0,0,1-2.26,2,7.81,7.81,0,0,1-2.89,1.07l7.53,11.73h-2.51l-7.31-11.39h-9.79V31.44Zm2.16-13.39h10.59a5.43,5.43,0,0,0,2.64-.64,6.75,6.75,0,0,0,2-1.68,7.43,7.43,0,0,0,1.3-2.38,8.55,8.55,0,0,0,.45-2.74A7.37,7.37,0,0,0,157,7.82a7.75,7.75,0,0,0-1.44-2.36,7.23,7.23,0,0,0-2.13-1.64,5.69,5.69,0,0,0-2.61-.61h-10.3Z"/><path class="cls-13" d="M166,31.44V1.25h2.16V31.44Z"/><path class="cls-13" d="M178.22,5.33V31.44h-2.17V1.25h1.66l21.18,26.58V1.25h2.17V31.44h-2Z"/><path class="cls-13" d="M230,3.21H219V31.44h-2.17V3.21h-11v-2H230Z"/><path class="cls-13" d="M254.81,29.49v2H234.7V1.25h19.73v2H236.87V15.07h15.35v1.87H236.87V29.49Z"/><path class="cls-13" d="M260.73,31.44V1.25h12.54a7.76,7.76,0,0,1,3.53.81,8.92,8.92,0,0,1,2.79,2.15,10,10,0,0,1,1.82,3,9.15,9.15,0,0,1,.66,3.38,10.27,10.27,0,0,1-.51,3.21,9.53,9.53,0,0,1-1.44,2.78,8.14,8.14,0,0,1-2.26,2A7.81,7.81,0,0,1,275,19.71l7.53,11.73H280l-7.31-11.39h-9.79V31.44Zm2.16-13.39h10.59a5.43,5.43,0,0,0,2.64-.64,6.75,6.75,0,0,0,2-1.68,7.43,7.43,0,0,0,1.3-2.38,8.55,8.55,0,0,0,.45-2.74,7.37,7.37,0,0,0-.54-2.79,7.75,7.75,0,0,0-1.44-2.36,7.23,7.23,0,0,0-2.13-1.64,5.69,5.69,0,0,0-2.61-.61h-10.3Z"/><text class="cls-14" transform="translate(83.59 54.16)">C<tspan class="cls-15" x="21.71" y="0">ONSU</tspan><tspan class="cls-16" x="112" y="0">L</tspan><tspan class="cls-17" x="128.85" y="0">TING</tspan></text></g></g></svg>